<svg width="128" height="139" viewBox="0 0 128 139" fill="none"
  xmlns="http://www.w3.org/2000/svg">
  <path d="M0 0V1.04529V137.487V138.563H1.06528H126.611H127.677V137.487V1.04529V0H126.611H1.06528H0ZM41.4205 2.09059H115.113C120.825 2.14021 125.114 2.21449 125.264 2.3058C125.438 2.41155 125.52 32.5795 125.452 69.3584L125.327 136.226L115.081 136.442H62.82C53.108 136.364 44.9944 136.287 34.6528 136.226C17.0187 136.123 2.50044 135.961 2.1619 135.858V16.3865C2.22629 5.34892 2.29601 2.85061 2.60052 2.55173C2.81115 2.34507 19.9862 2.18511 41.4205 2.09059ZM81.3057 3.5663C46.6274 3.56531 4.93015 4.03951 4.60574 4.42712C4.0995 5.0319 3.35994 131.902 3.85379 133.429C4.16773 134.399 6.79629 134.487 39.6032 134.72C55.2249 134.831 68.03 134.944 68.0837 134.997C68.1796 135.091 80.1263 135.082 99.5094 134.966C107.48 134.918 109.335 134.813 109.504 134.382C109.945 133.255 108.868 130.79 107.248 129.248C104.833 126.947 102.69 126.102 99.3214 126.081C97.7757 126.071 96.5016 125.907 96.5016 125.712C96.5016 125.517 96.8565 124.857 97.2849 124.267L98.0681 123.191L97.0969 121.408C96.5623 120.421 96.1401 119.344 96.157 119.01C96.1749 118.651 96.3433 118.788 96.5642 119.348C96.77 119.87 97.7774 120.926 98.8201 121.715L100.7 123.16L102.392 122.392C105.021 121.19 107.305 120.486 107.875 120.701C108.163 120.809 108.566 121.288 108.784 121.746C109.169 122.558 109.185 122.549 109.442 121.808C109.586 121.39 109.874 120.751 110.068 120.393C110.339 119.894 110.29 119.797 109.849 119.963C109.533 120.082 109.285 120.01 109.285 119.778C109.285 119.547 109.593 119.348 109.974 119.348C110.355 119.348 111.519 118.369 112.575 117.196C116.031 113.352 116.518 112.94 117.588 112.677C118.261 112.511 119.102 112.624 119.938 113.015C121.149 113.581 121.254 113.778 121.254 115.382C121.254 116.339 121.098 117.437 120.878 117.842C120.422 118.677 118.146 119.717 116.773 119.717C115.681 119.717 115.597 120.03 116.523 120.701C117.498 121.408 116.794 121.897 114.392 122.207C112.984 122.389 112.355 122.351 112.355 122.053C112.355 121.818 112.713 121.623 113.139 121.623C113.564 121.623 113.922 121.463 113.922 121.254C113.922 120.753 113.294 120.76 111.729 121.316C110.375 121.796 110.033 122.547 111.008 122.914C112.337 123.415 110.965 125.036 109.222 125.036C107.755 125.036 107.812 125.489 109.316 126.142C111.794 127.219 112.698 130.52 111.196 132.937C110.771 133.62 110.444 134.348 110.444 134.566C110.444 134.987 122.923 134.928 123.353 134.505C123.67 134.192 123.765 127.781 123.729 106.62C123.712 96.5978 123.693 85.2419 123.697 81.3792C123.701 77.5165 123.67 58.4495 123.635 38.9833L123.603 3.5663H81.3057ZM49.974 6.30251C50.3658 6.25215 50.8598 6.73545 51.6973 7.90118C53.0853 9.83352 55.2476 10.9227 59.3109 11.7134C60.7274 11.9891 62.5299 12.5014 63.3527 12.851C65.933 13.9473 66.2774 13.3079 64.2299 11.16C62.6922 9.54693 62.4975 9.13411 62.8513 8.48534C63.0853 8.05643 63.6557 7.74746 64.1673 7.74747C65.7329 7.74746 69.0237 12.3545 69.0237 14.5419C69.0237 14.9585 69.7112 15.8043 70.5276 16.448C72.163 17.7376 76.992 20.2774 79.3318 21.0596L80.8357 21.5515L79.6765 21.8282C77.4968 22.3131 75.0258 22.032 74.0681 21.2133C73.7489 20.9405 72.6501 20.3294 71.6242 19.8606C70.5984 19.3917 69.4863 18.6132 69.149 18.1082C68.6251 17.3237 65.3204 15.3412 64.5433 15.3412C64.4021 15.3412 64.3757 16.089 64.4806 17.0014C64.6968 18.8833 64.2809 19.8913 63.29 19.8913C62.2331 19.8913 61.6921 19.1005 61.6921 17.5855V16.2021L58.6842 15.7102C56.1561 15.3113 55.5237 15.0771 54.6425 14.1115C54.002 13.4097 53.3732 13.0536 53.0132 13.1891C52.2619 13.472 51.7371 15.4157 52.3553 15.6179C53.0191 15.8351 52.8765 16.6571 52.0732 17.3703C51.6842 17.7159 51.2691 17.9852 51.1646 17.9852C50.5698 17.9852 48.2627 15.4792 47.9061 14.4496C47.5115 13.3103 47.361 13.2156 45.2116 13.0047C43.9532 12.8812 42.1062 12.4101 41.1072 11.9594C38.6679 10.859 38.4753 10.9115 38.4753 12.605C38.4753 13.963 37.6163 15.3412 36.752 15.3412C36.2175 15.3412 35.4176 14.0315 35.4048 13.1584C35.3943 12.4551 35.1116 12.3087 33.5562 12.1131C32.5455 11.986 30.9572 11.537 30.0471 11.1293C27.4622 9.97125 26.7115 10.2054 27.6346 11.8979C27.8466 12.2866 27.8968 12.9005 27.7599 13.2506C27.5576 13.7679 27.2325 13.835 25.9426 13.6196C25.0695 13.4738 23.0421 13.2786 21.4622 13.1891C18.756 13.0359 12.5238 11.305 11.6554 10.4529C11.2006 10.0066 11.9575 8.63235 12.94 8.11639C13.5305 7.80631 14.1039 7.92522 15.5405 8.63904C17.9195 9.82113 20.9569 10.6517 22.3082 10.4837C23.1181 10.3829 23.3734 10.1276 23.3734 9.46913C23.3734 8.99336 23.7155 8.32668 24.1254 7.96268C24.8233 7.34295 25.0644 7.34149 27.8225 7.90118C29.4425 8.22991 31.0617 8.63583 31.4257 8.8235C31.7895 9.01116 33.0031 9.29036 34.1202 9.43839C36.0813 9.69824 36.1568 9.67014 36.1568 8.79276C36.1568 6.6628 37.7777 6.44175 39.7286 8.30086C41.3158 9.8134 43.7559 10.7524 46.0576 10.7604C46.9302 10.7634 48.1964 10.9579 48.8774 11.1908C50.4992 11.7456 50.7218 11.4598 49.7234 10.084C48.816 8.83353 48.7206 8.04002 49.3161 6.94814C49.5389 6.53951 49.7389 6.33274 49.974 6.30251ZM112.669 16.1098C113.669 16.1246 114.621 16.3463 115.457 16.7862C117.167 17.686 118.376 20.7059 118.026 23.2424C117.631 26.1147 115.577 29.6171 113.264 31.3896C110.472 33.5291 109.077 33.9324 103.771 34.1873L99.2274 34.4332V36.3086C99.2274 37.9069 99.1334 38.1363 98.6635 37.7536C98.3579 37.5048 97.9883 36.7779 97.8488 36.1549C97.5821 34.9629 97.0176 34.8932 96.3449 35.9397C96.0653 36.3746 96.0832 37.0141 96.3763 38.0918C96.9018 40.0235 96.3308 39.9925 94.9977 37.9995C94.2535 36.887 93.9454 36.6984 93.3997 36.985C91.9606 37.7407 91.4384 41.134 92.4598 43.0723C93.1316 44.347 92.9835 44.4352 91.6765 43.5949C90.7021 42.9684 89.9219 41.2492 89.9219 39.7519C89.9219 38.6807 89.6481 38.643 88.4807 39.5982C87.2365 40.6163 87.127 43.9005 88.2927 45.8392C89.3341 47.5712 88.6966 47.619 86.9768 45.9315C86.0466 45.0187 85.6608 44.2734 85.6608 43.4412C85.6608 42.6147 85.4697 42.2729 85.0342 42.2729C84.5005 42.2729 84.4669 42.713 84.6269 45.4088C84.729 47.1314 84.9153 48.9757 85.0655 49.4978C85.3238 50.3951 85.2849 50.3933 84.1569 49.2211C83.3839 48.4179 82.9663 47.5732 82.9663 46.8538C82.9663 45.5495 82.2918 44.9705 81.9323 45.9622C81.7952 46.3408 81.3914 46.9625 81.0551 47.3457C80.6356 47.8238 80.4645 48.8206 80.4597 50.5123C80.454 52.5245 80.5947 53.0819 81.2117 53.5252C82.386 54.369 84.4789 54.8142 87.2588 54.8165C89.4589 54.8183 89.9049 54.6974 90.6739 53.8941C91.4541 53.0792 91.5468 52.6706 91.3945 50.6045L91.2379 48.2373L92.1151 49.344C93.4121 50.9345 93.397 54.1927 92.0838 55.5543C91.254 56.4148 90.8993 57.8203 91.0499 59.6433C91.0715 59.9047 91.5925 60.1352 92.2091 60.1352C92.8729 60.1352 93.4172 60.3632 93.5564 60.7193C93.8971 61.5903 93.8757 61.6416 93.0238 61.6416C92.5982 61.6416 92.2405 61.4815 92.2405 61.2727C92.2405 60.3283 91.2187 61.0374 90.5172 62.4717C90.0917 63.3418 89.4993 64.1304 89.2013 64.2241C88.7836 64.3555 88.803 64.2067 89.2953 63.517C90.1009 62.3884 90.115 59.9938 89.3266 58.8132C88.5319 57.6229 86.0784 56.6809 84.4389 56.9378C82.7893 57.1962 79.5897 55.8994 78.4232 54.509C77.9538 53.9496 77.4727 53.6278 77.3266 53.7712C77.1803 53.9146 77.2493 54.2876 77.5146 54.6013C77.9045 55.0623 77.8641 55.6881 77.2013 57.8294C76.7504 59.2858 76.0531 60.6946 75.666 60.9653C72.7128 63.0305 71.4478 64.8768 74.1308 63.2096C76.0828 61.9965 76.9684 60.8718 77.7025 58.6902C78.468 56.4158 79.1689 56.182 81.3057 57.4604C82.2577 58.03 82.5903 58.4737 82.5903 59.3051C82.5903 59.909 82.8574 60.6365 83.1856 60.9038C83.9322 61.5118 83.8237 66.2209 83.0603 66.4684C82.7248 66.5772 82.6374 66.3276 82.7783 65.5769C83.0402 64.1803 82.1556 60.7892 81.4624 60.5656C81.0515 60.433 80.9614 60.6533 81.1491 61.4879C81.2842 62.0894 81.5134 63.4568 81.6504 64.5008C81.7873 65.5448 82.075 66.5853 82.277 66.8373C82.5192 67.1395 82.4311 67.5922 82.0263 68.1593C81.4207 69.0077 81.3968 69.0013 81.3684 67.5137C81.3112 64.5141 80.9177 63.1481 80.0525 63.1481C79.5905 63.1481 79.5052 63.3827 79.7078 64.0089C80.2106 65.5636 80.5399 69.407 80.2091 69.758C79.767 70.2272 79.5261 69.4489 79.3945 67.1755C79.3273 66.0144 79.0946 65.2521 78.7679 65.1464C78.3459 65.01 78.2491 65.5925 78.3606 68.1286L78.5172 71.2952L76.606 72.0023C73.9694 72.9707 73.1442 72.6941 72.6895 70.6803C72.2429 68.7026 71.5647 68.8715 71.5616 70.957C71.5596 72.3308 71.4588 72.4778 70.4963 72.5865C69.4707 72.7023 69.431 72.6587 69.431 70.957C69.431 69.7135 69.2704 69.216 68.9297 69.3276C68.6475 69.4201 68.5157 69.9552 68.5851 70.6189C68.7573 72.264 68.1138 72.5345 64.9819 72.1253C63.4924 71.9307 62.2199 71.7369 62.162 71.6949C62.1043 71.6529 62.2088 71.2112 62.4127 70.7111C62.7019 70.0017 62.801 69.9529 62.82 70.4959C62.8573 71.5531 63.8084 71.0382 63.948 69.881C64.0719 68.8544 63.4614 68.4537 63.102 69.3276C62.9726 69.6423 62.903 69.5958 62.8827 69.2047C62.837 68.3215 65.1113 66.3439 67.3004 65.3616C69.1175 64.5463 69.1706 64.4983 68.1464 64.3778C67.3736 64.287 66.3638 64.6916 64.6686 65.7921C61.7295 67.6999 60.5328 68.6631 60.5328 69.1432C60.5328 69.3451 60.2546 69.7457 59.9375 70.004C59.4661 70.3879 59.1906 70.3074 58.4023 69.5736C57.8719 69.0799 57.4347 68.5576 57.431 68.4053C57.4273 68.2529 58.115 67.7553 58.9662 67.3293C59.8174 66.9032 60.5328 66.4164 60.5328 66.2225C60.5328 65.7483 57.7374 66.8739 57.1803 67.5752C56.8047 68.048 56.6197 67.9781 55.9271 67.1141C55.4786 66.5546 55.1124 65.9972 55.1124 65.8536C55.1124 65.7099 55.8782 65.1853 56.8357 64.716C57.7933 64.2468 58.5902 63.6723 58.5902 63.4555C58.5903 62.9159 56.6358 63.4281 55.7704 64.1934C55.3495 64.5656 54.9559 64.6858 54.7365 64.4701C54.349 64.0891 51.2155 58.11 51.3526 58.0138C51.73 57.7492 55.4043 56.6918 55.9584 56.6918C56.3461 56.6918 56.6476 56.5293 56.6477 56.2922C56.6477 55.7356 53.4793 56.1267 51.9479 56.8763C51.0576 57.3121 50.8513 57.3101 50.8513 56.9071C50.8513 56.6325 51.2907 56.3002 51.8226 56.1692C52.3546 56.0382 52.7939 55.7089 52.7939 55.4314C52.7939 54.8141 55.7743 53.5874 56.0837 54.0786C56.2042 54.27 56.1211 54.4168 55.8957 54.4168C55.6704 54.4168 55.4884 54.5835 55.4884 54.7857C55.4884 54.9879 55.7084 55.0761 55.9897 54.9702C56.271 54.8643 56.7114 55.1687 56.961 55.6466C57.2104 56.1244 58.3899 57.8006 59.5615 59.3666C60.7333 60.9325 61.7848 62.4916 61.9114 62.8406C62.1589 63.5222 64.428 64.7706 64.7626 64.4086C64.8736 64.2884 64.7609 64.1068 64.4806 64.0089C64.2003 63.911 63.4849 63.4262 62.914 62.9329C61.9032 62.0594 61.8924 62.053 62.726 62.0413C64.7681 62.0127 67.7973 60.4626 69.713 58.475C72.5183 55.5645 73.156 52.1841 71.9062 46.7923C71.3443 44.3685 71.3443 44.0673 71.9062 43.226C72.2443 42.7196 72.5328 41.7168 72.5328 40.9817C72.5328 39.7127 72.6205 39.6104 74.2874 39.1985C75.2531 38.9599 75.9374 38.6654 75.8227 38.5529C75.7081 38.4404 73.5949 38.3135 71.1229 38.2455C68.651 38.1774 65.9162 37.9224 65.0446 37.6921C62.8118 37.1021 60.7022 34.941 60.3448 32.8653C60.0313 31.0444 60.3615 30.3303 61.0341 31.4203C63.4085 35.2678 63.8856 35.4915 69.5563 35.6322C71.9342 35.6912 74.533 35.9346 75.3527 36.1856C76.7033 36.5992 76.8505 36.7474 76.7 37.7536C76.6086 38.3642 76.6196 38.8603 76.7626 38.8604C77.0679 38.8603 78.3292 37.5801 78.3292 37.2617C78.3292 36.9494 73.3792 34.4976 71.6242 33.9413C70.812 33.6839 70.226 33.4072 70.3083 33.3264C70.4836 33.1544 75.5858 34.1099 77.5459 34.6792C79.6754 35.2976 79.6853 35.1909 77.4519 32.6808C76.2908 31.3758 75.1705 29.9058 75.0081 29.3912C74.7531 28.5835 74.9982 28.6862 76.6686 30.1598C78.1211 31.4412 79.341 32.0913 81.5564 32.773C83.1793 33.2725 84.5957 33.5722 84.7209 33.4494C85.0067 33.1689 84.2563 31.7061 83.2796 30.6517C82.5387 29.8519 82.5406 29.8537 83.8122 29.6679C84.5133 29.5655 89.2642 29.5485 94.3711 29.6372C99.478 29.7259 104.474 29.8112 105.462 29.8216C108.361 29.8521 111.247 28.3535 112.919 25.9171C115.085 22.762 114.621 20.2602 111.885 20.2602C110.797 20.2602 108.134 21.823 107.781 22.6583C107.705 22.8378 106.877 23.8043 105.932 24.8103C104.261 26.5906 104.134 26.621 101.421 26.8702C99.7191 27.0265 97.8704 26.9843 96.6896 26.7165C94.4125 26.2 91.6198 25.786 84.5016 24.9948C81.629 24.6755 78.3575 24.2781 77.2013 24.0725C76.045 23.8669 74.3014 23.6728 73.3475 23.6728C72.3936 23.6728 71.7268 23.5722 71.8749 23.4269C72.023 23.2816 76.3712 23.1356 81.5251 23.1194C86.8686 23.1027 90.9709 22.9517 91.0812 22.7505C91.1876 22.5564 90.2274 22.0667 88.9507 21.6745C87.6739 21.2823 86.3236 20.7972 85.9428 20.5984C85.562 20.3997 83.7231 19.6882 81.8697 19.0305C78.9706 18.0018 76.0107 16.6202 76.0107 16.2943C76.0106 16.0955 83.6521 18.0304 88.324 19.3994L93.1178 20.7829L94.1517 19.5839C95.3393 18.1695 98.7337 16.8505 101.233 16.8477C102.142 16.8466 103.689 17.1142 104.679 17.4626C106.461 18.0891 106.512 18.0937 108.596 17.0936C110.006 16.4164 111.383 16.0908 112.669 16.1098ZM23.7808 16.325C24.7863 16.3403 25.4928 17.2398 26.8826 19.7991C28.7798 23.293 30.2081 24.4414 32.679 24.4414C34.1921 24.4414 34.5288 24.2529 36.1254 22.6275C37.1459 21.5887 38.307 19.871 38.8199 18.6308C39.3134 17.4378 39.8767 16.4787 40.0732 16.4788C40.2698 16.4788 41.1536 16.8158 42.0158 17.2474C43.4115 17.9461 43.5296 18.1543 43.3004 19.0612C43.1587 19.6214 42.6812 20.4677 42.2351 20.9366C41.0893 22.1412 41.5452 22.2885 44.021 21.5823C45.7471 21.0899 46.5931 21.055 48.3134 21.3671C50.9481 21.845 51.6872 22.1992 54.2038 24.2877C57.6893 27.1802 58.6648 30.895 56.9923 34.7099C56.2624 36.3748 55.9864 36.6089 54.2665 37.1694C51.3504 38.1198 47.7159 37.1833 47.2169 35.3555C46.5728 32.9963 47.4753 31.1514 49.5041 30.6517C50.7727 30.3393 50.7305 29.4014 49.3787 28.1307C48.032 26.8647 45.0056 26.6029 43.3944 27.6388C42.1042 28.4683 40.4883 30.5341 40.2299 31.697C39.5319 34.8378 39.377 96.6445 40.0419 104.745C40.5068 110.41 40.8256 111.892 42.0471 113.691C43.3498 115.61 45.4441 116.478 49.2221 116.643L52.4179 116.766L52.9819 118.057C53.7987 119.975 54.7365 119.764 54.7365 117.657C54.7364 115.985 54.7421 115.958 56.3657 115.536C61.025 114.325 67.958 111.919 70.183 110.74C75.643 107.845 80.2788 103.915 85.0342 98.1347C87.246 95.4462 91.3181 87.381 92.3658 83.6543C92.6886 82.5059 93.4376 79.8702 94.0264 77.7822C95.0806 74.0445 95.1001 73.8103 95.1543 62.4102C95.2209 48.4194 95.4999 46.61 97.9742 43.5642C99.7598 41.3659 103.847 40.5872 106.81 41.8733C109.129 42.8802 109.909 43.5972 110.883 45.4703C111.556 46.7637 111.591 47.1577 111.196 48.6984C110.699 50.6385 109.979 51.5902 108.408 52.3877C106.178 53.5188 103.463 52.5539 102.925 50.4508C102.514 48.8459 102.008 49.3828 101.765 51.6806C101.638 52.8812 101.496 63.9261 101.452 76.245C101.367 100.217 101.669 106.763 103.081 110.279C103.497 111.314 103.865 112.286 103.865 112.461C103.865 112.637 102.904 113.364 101.734 114.06C100.564 114.756 99.6034 115.463 99.6034 115.628C99.6034 116.01 98.1464 116.039 97.9742 115.659C97.9033 115.502 97.2129 114.8 96.4076 114.122C95.2417 113.139 94.582 112.892 93.2431 112.892C91.7821 112.892 91.4287 113.051 90.5486 114.183C89.9912 114.9 89.5452 115.802 89.5459 116.181C89.5487 117.457 91.0253 119.273 93.3058 120.793C96.6248 123.005 96.7117 123.188 95.5616 124.851C95.0307 125.619 94.501 126.571 94.3711 126.973C94.1189 127.752 92.6744 127.982 92.0211 127.341C91.1376 126.475 84.3131 123.889 81.5251 123.376C76.8197 122.509 67.3402 122.232 60.7208 122.761C57.529 123.016 54.209 123.286 53.3578 123.345C50.3281 123.553 44.8186 124.289 43.4884 124.667C42.7451 124.878 41.5547 125.036 40.8252 125.036C40.0959 125.036 39.1463 125.347 38.726 125.712C37.9726 126.367 37.9727 126.342 38.1933 124.175C38.7366 118.84 34.8836 116.218 30.0471 118.641C28.5807 119.376 27.9743 120.027 26.9766 121.838C26.2911 123.083 25.7293 124.381 25.7233 124.728C25.6995 126.107 21.2932 125.902 17.1071 124.329C15.9676 123.9 13.8362 121.261 13.4726 119.84C13.0092 118.028 13.6982 115.468 15.0392 114.152C16.1417 113.071 16.5212 112.929 17.6397 113.138C19.5955 113.502 19.9242 113.908 19.8329 115.966C19.7061 118.826 20.3993 119.164 22.2768 117.104C24.6913 114.454 26.339 110.646 26.9139 106.436C27.4462 102.537 27.7133 48.4494 27.2586 36.7698C27.0488 31.385 26.9228 30.5072 26.0993 28.8993C25.2475 27.2362 25.0009 27.0374 23.0288 26.5013C21.8459 26.1797 20.3765 25.7699 19.7703 25.579C19.0564 25.3541 18.3884 25.3482 17.8904 25.6097C16.8556 26.1532 17.2331 26.4089 19.175 26.5013C20.4957 26.5641 21.0309 26.8443 22.0888 27.977C23.5179 29.507 23.6537 30.2798 22.8408 32.1889C22.1948 33.7059 20.2469 34.4933 17.9217 34.1873C16.1477 33.9538 15.2258 33.0482 13.8799 30.1906C11.6506 25.4571 14.4848 21.1981 20.2089 20.7214C22.0926 20.5646 22.2718 20.4722 22.0575 19.7376C21.3173 17.1999 21.3281 17.05 22.6215 16.571C23.0635 16.4073 23.4456 16.32 23.7808 16.325ZM101.327 18.7845C99.1489 18.8548 96.1592 19.8268 95.8123 20.9366C95.5753 21.6951 97.2602 21.4946 98.3815 20.6292C99.1333 20.049 99.8831 19.8498 101.327 19.8913C103.983 19.9679 104.004 19.9533 103.457 19.3072C103.119 18.9072 102.317 18.7526 101.327 18.7845ZM99.9794 20.3217C98.9682 20.3548 98.9759 20.9298 100.042 22.0434C101.271 23.3266 102.006 23.1716 101.859 21.6745C101.753 20.5896 101.586 20.4264 100.481 20.3217C100.294 20.3041 100.124 20.317 99.9794 20.3217ZM96.6269 32.0659C96.5113 32.0783 96.3411 32.1175 96.1256 32.1582C92.9148 32.7643 86.6984 34.3517 84.8148 35.0481C82.2685 35.9896 79.1123 38.635 77.7652 40.9202C76.8638 42.4493 75.9186 46.912 76.2926 47.8683C76.7315 48.9905 77.0601 48.1631 77.2326 45.5933C77.3844 43.3327 77.6608 42.51 78.6739 40.9509C81.1392 37.1568 84.5201 35.2496 91.2379 33.9106C93.7479 33.4102 96.0866 32.7797 96.4389 32.4964C96.8673 32.1519 96.9739 32.0289 96.6269 32.0659ZM17.2951 36.0319C17.5833 36.0303 17.7472 36.3334 17.6711 37.0465C17.5434 38.2434 17.7651 38.327 19.6136 37.5691C21.1009 36.9594 22.6215 37.1594 22.6215 37.9688C22.6215 38.2956 22.1946 38.4914 21.4935 38.4914C20.7109 38.4914 20.0591 38.848 19.363 39.6597C18.1865 41.0318 18.1596 41.0963 18.9557 42.2114C19.4609 42.9192 19.8049 43.0276 20.8982 42.8263C23.8691 42.2794 25.1173 43.6789 22.4335 44.548C21.0822 44.9856 19.1994 46.6933 19.6136 47.0997C19.7511 47.2347 20.0945 47.1544 20.3656 46.946C21.3399 46.1972 24.5743 45.6396 25.1593 46.1159C25.9504 46.7601 25.8593 46.9615 24.376 47.7454C22.775 48.5914 21.3148 50.5705 20.4596 53.0333C19.9271 54.567 19.8862 55.3522 20.2403 58.2905C20.4695 60.1918 20.5465 61.9151 20.4283 62.1028C20.3101 62.2904 20.4211 62.6895 20.6789 62.9943C21.0107 63.3866 21.1226 64.7997 20.9922 67.8212C20.8403 71.3381 20.5857 72.5354 19.7076 74.6463C19.1212 76.0557 18.4897 77.1981 18.2977 77.1981C18.1058 77.1981 18.1633 76.8683 18.423 76.4602C18.6828 76.0521 18.7798 75.6112 18.6423 75.4764C18.236 75.0777 17.5771 75.6674 17.5771 76.4295C17.5771 77.1724 15.6209 81.3321 14.1306 83.7465C13.1589 85.3208 12.8318 85.4327 11.2794 84.6381C9.23166 83.5899 9.22048 83.4798 10.9661 83.2854L12.658 83.1009L11.6867 81.9634C10.4494 80.5236 9.97231 76.8453 10.7781 75.1075L11.2794 73.97L11.5614 75.1075C12.2148 77.8707 13.4508 80.6014 13.8799 80.1802C14.1138 79.9508 16.4178 71.6959 16.4178 71.08C16.4178 70.8993 16.173 70.7418 15.8538 70.7418C15.5346 70.7418 15.2585 71.0062 15.2585 71.326C15.2585 71.6457 14.9416 72.0265 14.5692 72.1561C14.1968 72.2856 13.5944 72.6416 13.222 72.9554C12.6145 73.4673 12.564 73.4745 12.564 72.8939C12.564 72.538 12.8247 71.7149 13.1593 71.08C13.6649 70.1207 13.9193 69.959 14.7259 70.1577C15.5179 70.3528 15.6863 70.2816 15.5718 69.7273C15.4561 69.1673 15.0883 69.0617 13.504 69.1432C11.1286 69.2653 8.56826 68.0137 8.36557 66.6221C8.25118 65.8376 8.32638 65.7638 9.11752 66.0073C9.61501 66.1603 10.5365 66.3552 11.1541 66.4684C12.1904 66.6584 12.2595 66.5973 12 65.7613C10.8873 62.1753 10.8651 54.9052 11.9687 55.0624C13.018 55.2119 13.845 57.1264 13.8799 59.5203C13.9226 62.4458 14.1632 62.8394 14.8199 61.0575C15.0874 60.3319 15.4632 59.7355 15.6345 59.7355C16.0959 59.7355 16.3844 56.3042 16.0105 55.3391C15.8329 54.881 14.5215 53.1914 13.0966 51.5883C10.9333 49.1544 10.4695 48.4116 10.3081 47.0075C10.0747 44.9748 10.5559 44.8371 11.5614 46.6693C12.5808 48.5265 13.9975 50.0895 14.3499 49.7437C14.51 49.5866 14.4199 49.1344 14.1619 48.7292C13.5642 47.7901 13.5705 44.1307 14.1619 42.8571C14.5579 42.0044 14.4886 41.7663 13.6293 40.8587C12.6588 39.8335 11.858 37.3539 12.5013 37.3539C12.6843 37.3539 13.124 37.785 13.4726 38.307C14.3625 39.6396 14.9611 39.4761 15.8538 37.6306C16.357 36.5902 16.9246 36.034 17.2951 36.0319ZM61.6294 37.4154C61.8228 37.4028 62.0437 37.5491 62.4754 37.8458C62.9795 38.1923 63.7671 38.4832 64.1986 38.4914C64.777 38.5024 64.6558 38.6494 63.7286 39.0448C62.3215 39.6449 62.2896 39.7254 62.914 40.8895C63.5552 42.0848 63.9188 42.2233 66.0159 42.1192C69.0311 41.9696 69.5666 40.563 67.0185 39.4752C65.7906 38.951 65.8514 38.9301 68.4597 39.1063C69.9462 39.2067 71.1905 39.3144 71.2169 39.3522C71.2433 39.3901 71.3626 39.9008 71.4989 40.459C71.6857 41.2239 71.4897 41.745 70.7469 42.6111L69.7757 43.7794L70.5276 45.4396C71.6103 47.7716 71.8919 50.4895 71.2169 52.3262C70.6583 53.8462 69.807 54.5902 69.807 53.556C69.807 53.2477 69.5038 52.8902 69.149 52.7566C68.6574 52.5715 68.6169 52.418 68.961 52.0802C69.2094 51.8365 69.431 51.2827 69.431 50.8812C69.431 50.2438 69.3433 50.2109 68.773 50.666C68.1916 51.1301 68.1703 51.1271 68.4597 50.4508C68.9996 49.189 69.1411 47.2227 68.7104 47.2227C68.4906 47.2227 67.8135 47.7338 67.1751 48.3602C66.5368 48.9866 65.7474 49.4977 65.4519 49.4978C65.1563 49.4978 64.1651 49.8367 63.2587 50.2664C62.3468 50.6987 61.0878 51.0074 60.4075 50.9427C59.348 50.842 59.1606 50.6606 59.0602 49.6515C58.9109 48.1497 59.5383 47.6507 62.0994 47.2534C64.1275 46.9389 65.5459 45.899 65.5459 44.7325C65.5459 44.0137 62.5989 43.65 59.1855 43.9638C56.4027 44.2197 56.3159 44.216 56.5224 43.4412C56.8252 42.3047 58.492 41.1354 59.8122 41.1354C60.8723 41.1354 60.9398 41.0673 60.7208 39.9056C60.5723 39.1176 60.686 38.401 61.0341 37.938C61.2909 37.5966 61.4361 37.4279 61.6294 37.4154ZM76.23 39.6904C75.9398 39.7043 75.2714 40.6443 74.6007 42.0577C73.3784 44.6337 73.4152 46.8086 74.6947 49.3748C75.2516 50.4918 75.7488 51.4039 75.8227 51.4039C75.8966 51.4039 76.1359 51.0685 76.3553 50.666C76.8286 49.7983 76.5005 48.7291 75.76 48.7292C74.2043 48.7292 74.126 44.7764 75.6034 41.9348C76.0406 41.0936 76.3866 40.2273 76.3866 39.9979C76.3866 39.7843 76.3268 39.6858 76.23 39.6904ZM51.196 44.179C51.4315 44.179 51.6346 44.7399 51.6346 45.4396C51.6346 46.1392 51.8104 47.3123 52.0419 48.022C52.2735 48.7318 52.5381 49.5594 52.6372 49.8667C52.7935 50.3515 52.8705 50.342 53.1699 49.8667C53.5688 49.2333 53.5312 49.1984 54.5171 51.1887C54.9309 52.0239 55.3297 52.8193 55.3944 52.9411C55.459 53.0629 54.8444 53.3739 54.0158 53.6174C50.8639 54.5441 49.5047 54.0272 48.8774 51.6498C48.7035 50.9907 48.3996 49.7668 48.1881 48.9444C47.791 47.3993 48.0051 45.4594 48.5954 45.1014C48.7808 44.989 48.9055 45.6159 48.9088 46.5156C48.9121 47.4153 49.1098 48.416 49.3161 48.7292C49.5804 49.1304 49.6879 48.618 49.692 46.946C49.6999 43.8101 50.3096 43.8935 50.5693 47.069C50.682 48.4454 50.9648 49.7479 51.2273 49.9897C51.604 50.3367 51.6772 49.9187 51.4779 47.8991C51.3392 46.4923 51.1002 45.079 50.9766 44.7632C50.8531 44.4474 50.9604 44.179 51.196 44.179ZM56.773 45.501C57.1854 45.4802 57.5435 45.5256 57.8069 45.6855C58.3139 45.9931 58.3237 46.1314 57.7756 46.6693C57.4326 47.0061 56.4315 47.3836 55.5511 47.4994C54.2534 47.6702 53.9531 47.5911 53.9532 47.0997C53.9532 46.3364 55.5357 45.5635 56.773 45.501ZM46.6842 49.3133C47.1577 49.3101 47.3735 49.6172 47.3735 50.2356C47.3735 50.704 46.973 50.9967 46.1516 51.1579C43.1438 51.7482 42.5945 51.0983 45.055 49.8667C45.7869 49.5002 46.3159 49.3158 46.6842 49.3133ZM76.136 51.8958C76.0897 51.9034 76.0639 51.925 76.0107 51.9573C75.7979 52.0863 75.6034 52.2649 75.6034 52.3569C75.6034 52.449 75.7979 52.5414 76.0107 52.5414C76.2234 52.5414 76.3866 52.3628 76.3866 52.1417C76.3866 51.9759 76.2747 51.8729 76.136 51.8958ZM47.5302 52.5414C47.624 52.5414 47.8059 52.7015 47.9375 52.9103C48.0689 53.1191 48.0062 53.2793 47.7808 53.2793C47.5555 53.2793 47.3735 53.1191 47.3735 52.9103C47.3735 52.7015 47.4363 52.5414 47.5302 52.5414ZM66.1412 52.7259C66.2866 52.705 66.5265 52.76 66.8618 52.8796C67.508 53.1101 67.5103 53.1966 66.9558 53.6482C66.4406 54.0677 66.285 54.0225 66.0785 53.4945C65.8833 52.9952 65.8988 52.7608 66.1412 52.7259ZM67.4884 54.4168C67.7012 54.4168 67.8644 54.6077 67.8644 54.8165C67.8644 55.0253 67.7011 55.1854 67.4884 55.1854C67.2756 55.1854 67.1125 55.0253 67.1125 54.8165C67.1125 54.6077 67.2756 54.4168 67.4884 54.4168ZM113.671 54.9087C114.867 54.936 116.203 55.3994 117.431 56.3537C120.524 58.7575 120.894 62.9806 118.371 66.9911C117.621 68.1833 117.024 69.4241 117.024 69.758C117.024 70.5978 117.904 70.5188 118.747 69.6043C119.639 68.6377 119.798 68.823 120.314 71.3567L120.721 73.4473L119.562 74.1544C117.834 75.2039 116.363 76.815 115.677 78.4278C115.346 79.2041 115.081 79.9462 115.081 80.0573C115.081 80.1684 115.776 80.2417 116.648 80.2417C118.212 80.2417 120.502 81.3854 120.502 82.1786C120.502 82.3838 119.877 82.8227 119.123 83.1317C118.171 83.5219 117.291 84.396 116.241 85.9908C114.583 88.5078 114.176 90.1789 114.361 93.9228L114.486 96.3823L115.645 95.1526C116.278 94.474 117.116 93.9228 117.494 93.9228C118.53 93.9228 118.437 97.4881 117.368 99.0263C114.682 102.895 114.119 105.513 115.269 108.711C116.041 110.857 115.996 111.432 115.019 112.461C113.822 113.721 113.522 112.991 113.515 108.618C113.511 106.101 113.376 104.929 113.076 104.929C112.756 104.929 112.704 106.152 112.888 109.387C113.028 111.84 113.002 114.36 112.825 114.982C112.626 115.686 111.838 116.566 110.726 117.35C108.977 118.582 108.917 118.602 108.502 117.842C108.199 117.287 107.702 117.073 106.747 117.073C105.904 117.073 105.092 116.771 104.585 116.274C103.637 115.343 103.849 114.952 104.961 115.536C105.391 115.761 106.521 115.935 107.468 115.935C109.689 115.935 110.323 115.01 110.663 111.416C110.912 108.787 110.908 108.75 109.786 108.065C107.372 106.591 105.807 105.101 105.807 104.284C105.807 102.796 106.486 102.989 108.188 104.929C109.107 105.976 110.084 106.804 110.35 106.805C110.616 106.805 110.82 106.781 110.82 106.712C110.82 106.433 107.706 99.5227 106.434 96.9972C104.979 94.1081 105.274 93.8727 107.499 96.1671C109.356 98.0819 109.815 97.7619 109.504 94.7836C109.225 92.1117 108.078 87.4847 107.154 85.3145C106.529 83.8447 107.141 83.5301 107.812 84.9763C108.698 86.8843 108.996 86.0027 108.721 82.3323C108.404 78.1025 107.649 75.3373 106.559 74.3696C105.327 73.2755 105.662 72.8877 107.092 73.7548C107.808 74.1894 108.661 74.5541 108.972 74.5541C109.282 74.5541 109.929 73.6681 110.444 72.5865C111.583 70.1945 111.706 66.3555 110.663 65.6076C109.811 64.9962 109.863 64.6853 110.82 64.6853C111.821 64.6853 113.812 65.6512 114.016 66.2532C114.263 66.979 115.37 66.3222 116.241 64.962C117.416 63.1251 117.141 60.1304 115.645 58.598C115.038 57.9762 114.132 57.4604 113.64 57.4604C112.655 57.4604 112.503 57.8508 113.201 58.5365C113.55 58.8789 113.494 59.1466 112.951 59.7355C112.561 60.158 112.031 60.5041 111.76 60.5041C110.876 60.5041 110.056 59.3387 110.068 58.1061C110.089 56.024 111.679 54.8631 113.671 54.9087ZM50.5067 55.2469C50.6411 55.2415 50.7744 55.2535 50.914 55.3084C51.2226 55.4295 51.1454 55.5361 50.6947 55.5543C50.2868 55.5708 50.0335 55.4653 50.162 55.3391C50.2263 55.276 50.3723 55.2523 50.5067 55.2469ZM69.4623 55.6773C69.7808 55.6312 69.9025 55.842 69.619 56.2922C69.4787 56.5149 69.0939 56.6918 68.7417 56.6918C68.1511 56.6918 68.1385 56.6688 68.7417 56.077C68.9943 55.829 69.2712 55.7049 69.4623 55.6773ZM56.6477 57.276C56.4637 57.2895 56.2435 57.3298 55.9897 57.3682C54.2299 57.6345 52.3866 58.4679 52.3866 59.0284C52.3866 59.2768 52.6661 59.327 53.0759 59.1514C53.4483 58.9917 54.5717 58.6134 55.5824 58.2905C57.5038 57.6768 57.9356 57.1812 56.6477 57.276ZM57.5563 58.8439C57.3334 58.8426 57.0765 58.8464 56.773 58.8747C54.5856 59.0784 53.1699 59.6888 53.1699 60.4119C53.1699 60.8228 53.3341 60.8149 53.9845 60.4733C54.436 60.2363 55.6179 59.9327 56.585 59.797C58.7308 59.4958 59.1164 58.8531 57.5563 58.8439ZM57.2117 60.5041C55.325 60.5041 53.9531 61.0161 53.9532 61.7031C53.9532 61.951 54.3048 62.0101 54.8304 61.8568C55.3092 61.7172 56.3459 61.5174 57.149 61.3957C59.2676 61.0747 59.2994 60.5041 57.2117 60.5041ZM57.9636 61.7339C57.822 61.7386 57.6079 61.774 57.337 61.8568C55.5245 62.4109 54.7944 62.7577 54.5485 63.1481C54.1783 63.7358 55.0165 63.6355 56.7104 62.9021C58.0028 62.3426 58.5774 61.7131 57.9636 61.7339ZM17.3264 62.5332C17.2985 62.5359 17.2612 62.5465 17.2324 62.5639C16.959 62.7298 17.0323 63.6 17.6084 66.3762C17.6517 66.585 17.7711 66.1921 17.8591 65.4846C18.0369 64.0555 17.7442 62.4923 17.3264 62.5332ZM59.4049 64.6853C58.675 64.6853 56.2717 65.8686 56.2717 66.2225C56.2717 66.7575 56.8089 66.6767 58.3709 65.9458C59.6419 65.3511 60.1902 64.6853 59.4049 64.6853ZM53.1385 66.5914C53.8708 66.5628 54.6739 67.0954 55.6137 68.2208C56.5882 69.3877 56.9265 70.1042 56.773 70.6803C56.4659 71.8325 55.8957 71.7193 55.8957 70.4959C55.8957 68.8566 54.9341 70.101 54.7365 72.0023C54.7202 72.1589 54.5372 72.279 54.2978 72.279C53.8793 72.279 53.9596 71.4645 54.5798 69.3276C55.0119 67.8387 53.9256 68.3846 53.2325 70.004C52.8759 70.837 52.4521 71.5083 52.2926 71.5104C51.7603 71.5175 52.0106 70.2083 52.7939 68.7742C53.2199 67.9943 53.4196 67.3292 53.2325 67.3293C52.6959 67.3292 52.1588 68.1755 51.6346 69.8195C51.0411 71.6815 50.5649 72.2082 50.256 71.4182C49.9909 70.7405 50.9643 68.2664 51.8853 67.2678C52.2776 66.8424 52.6992 66.6086 53.1385 66.5914ZM77.1073 66.5914C76.8855 66.6016 76.7545 67.0557 76.8566 67.9134C77.026 69.3367 76.5966 69.7249 76.2613 68.4668C76.15 68.0492 75.8988 67.7289 75.666 67.7289C75.1932 67.7289 75.1136 68.9232 75.478 70.7111C75.7765 72.1756 76.2136 72.2117 76.606 70.8341C76.8281 70.054 76.9251 69.9688 77.0446 70.4651C77.1326 70.8305 77.3422 71.1415 77.5146 71.1415C78.0388 71.1415 78.2732 69.2116 77.8906 67.8519C77.6511 67.0006 77.3291 66.5812 77.1073 66.5914ZM60.4075 67.4522C60.3108 67.4591 60.0903 67.513 59.7495 67.6367C59.2415 67.8211 58.7661 68.1642 58.6842 68.4053C58.446 69.1066 59.1923 68.9398 59.9688 68.0979C60.4075 67.6223 60.5687 67.4407 60.4075 67.4522ZM65.2012 67.7289C64.811 67.7289 64.4951 69.4605 64.6999 70.4651C64.775 70.8331 65.0046 71.0456 65.2012 70.9263C65.6588 70.6488 65.6576 67.7289 65.2012 67.7289ZM66.9558 68.0979C66.6283 68.0788 66.3292 68.5134 66.3292 69.3584C66.3292 70.0544 66.4379 70.7564 66.5798 70.8956C67.3384 71.6399 68.0126 70.4567 67.6451 69.0202C67.4876 68.4046 67.2107 68.1127 66.9558 68.0979ZM73.6921 68.559C73.2468 68.5829 73.1302 69.9208 73.5355 70.957C73.7665 71.548 73.8356 71.5602 74.1621 70.9878C74.6231 70.1793 74.4036 68.7586 73.7861 68.559C73.7534 68.5485 73.7218 68.5574 73.6921 68.559ZM61.5354 68.9894C61.6393 68.963 61.6545 69.2565 61.6607 69.9118C61.6731 71.2132 61.4231 71.5025 61.0655 70.5881C60.948 70.2876 61.0293 69.7364 61.2534 69.3584C61.3833 69.1393 61.4731 69.0053 61.5354 68.9894ZM70.3396 69.2354C69.8875 69.2354 69.793 69.4713 69.9637 70.0962C70.092 70.566 70.18 71.2373 70.183 71.6027C70.1895 72.4157 70.9102 72.4792 71.2169 71.6949C71.5711 70.7891 71.017 69.2354 70.3396 69.2354ZM113.891 70.1884C113.483 70.1881 113.506 70.4656 113.671 71.4797C113.832 72.4674 113.685 73.3171 113.17 74.3081C112.767 75.084 112.313 76.5616 112.167 77.5977C112.022 78.6339 111.765 79.4731 111.603 79.4731C111.442 79.4731 111.404 81.9795 111.509 85.0378C111.704 90.6619 111.495 91.462 110.444 88.973C109.986 87.8879 109.285 87.4302 109.285 88.2044C109.285 88.4007 109.806 89.5488 110.444 90.7561C111.337 92.4452 111.603 93.4531 111.603 95.1218C111.603 96.3145 111.765 97.7353 111.979 98.2884C112.452 99.5079 112.138 100.193 111.384 99.5797C111.091 99.341 110.646 99.2267 110.413 99.303C110.18 99.3792 110.641 100.081 111.447 100.871C112.807 102.205 112.974 102.245 113.421 101.609C113.685 101.232 114.02 100.747 114.204 100.533C115.035 99.5646 115.945 98.029 115.771 97.858C115.665 97.7544 115.072 98.3029 114.486 99.057C113.9 99.8112 113.28 100.277 113.107 100.102C112.65 99.6421 112.539 91.307 112.919 86.8824C113.132 84.4139 113.577 82.3175 114.173 80.8566C115.244 78.2281 115.138 77.7571 113.922 79.6883C113.448 80.4411 112.994 80.9911 112.919 80.9181C112.703 80.7055 114.189 74.1303 114.862 72.3098C115.2 71.3961 115.457 70.6112 115.457 70.5574C115.457 70.5036 115.01 70.3848 114.455 70.2807C114.212 70.2351 114.027 70.1886 113.891 70.1884ZM82.3396 70.3729C82.6945 70.3729 81.6117 71.8118 80.8357 72.3713C80.6228 72.5247 80.1837 72.6225 79.8645 72.6172C79.5135 72.6114 79.8063 72.1899 80.6164 71.5104C81.3531 70.8925 82.139 70.3729 82.3396 70.3729ZM83.4676 71.203C83.5352 71.2042 83.5846 71.2256 83.6242 71.2645C83.7827 71.42 83.6552 71.7159 83.3423 71.9101C82.4004 72.4946 81.9851 72.3195 82.6843 71.6334C82.9542 71.3687 83.2646 71.1994 83.4676 71.203ZM59.0602 72.0331C59.1965 72.0271 59.2933 72.0342 59.3422 72.0638C59.6541 72.253 59.6863 73.0333 59.4362 76.2757C59.389 76.8868 59.1074 77.069 58.1203 77.0751C56.1384 77.0874 53.9531 77.5792 53.9532 78.0282C53.9532 78.4152 54.5931 78.3593 57.0863 77.7822C58.6917 77.4106 59.1905 78.051 58.6529 79.8113C58.1476 81.4663 56.502 82.9164 55.1124 82.9164C54.6513 82.9164 54.0217 83.1566 53.7025 83.4698C53.3833 83.783 52.6432 84.0511 52.0732 84.054C51.5033 84.0568 50.7129 84.1143 50.2874 84.2077C49.8618 84.3011 49.1352 84.2359 48.6895 84.054C47.9966 83.7713 47.8241 83.3089 47.6241 80.7644C47.4172 78.131 47.544 76.9632 48.3448 73.5088C48.5407 72.6637 48.6272 72.6286 51.9166 72.8632C54.5392 73.0502 55.7147 72.9801 57.149 72.4942C57.9102 72.2364 58.6516 72.051 59.0602 72.0331ZM79.0185 72.7094C79.1534 72.7374 78.9089 72.9717 78.3292 73.4165C77.4877 74.0625 77.4451 74.1471 78.0786 74.1544C78.479 74.1591 79.4392 73.7807 80.2091 73.3243C81.551 72.5289 81.5897 72.5485 80.9297 73.2936C80.551 73.721 79.55 74.3647 78.7052 74.7386C77.8604 75.1124 77.17 75.576 77.17 75.7531C77.17 76.1918 77.3593 76.1438 78.9872 75.4764C80.3919 74.9004 80.3821 74.9265 79.6765 75.6916C78.8165 76.6241 79.62 76.7551 80.8044 75.8761C82.1916 74.8465 82.6779 75.2366 81.5251 76.4602C80.2089 77.857 78.4654 78.838 77.8906 78.4893C77.3813 78.1805 74.3864 79.1139 74.6321 79.5039C74.7286 79.6571 75.7993 79.9123 76.982 80.0573C78.9865 80.303 79.1646 80.2315 79.8958 79.3194C80.6756 78.3466 81.807 78.0097 81.807 78.7353C81.807 78.9441 82.1539 79.1042 82.5903 79.1042C83.1301 79.1042 83.5563 79.5306 83.9376 80.4262C84.882 82.644 84.7365 82.9031 82.7783 82.6397C81.8326 82.5126 80.744 82.5588 80.3658 82.7012C79.1188 83.1708 80.6236 83.6405 82.6217 83.4084C84.3781 83.2042 84.4658 83.2412 84.7209 84.2384C84.8678 84.8125 84.9279 87.044 84.8148 89.219C84.5797 93.7394 83.9942 94.9312 81.1178 96.9664C78.9284 98.5155 77.3824 98.9288 75.5407 98.4421C74.189 98.085 73.4863 97.3353 74.5067 97.3354C74.8117 97.3354 74.8053 97.1719 74.4754 96.782C74.2171 96.4766 73.7004 95.2737 73.3475 94.1072C72.9946 92.9407 72.5263 91.9756 72.3135 91.9859C72.1007 91.9962 71.9375 92.1634 71.9375 92.3549C71.9375 93.2873 71.3845 93.076 71.1542 92.0474C70.898 90.9024 70.2344 90.4082 70.183 91.3403C70.1686 91.6013 69.9439 91.4411 69.713 90.9714C69.2771 90.0843 68.6477 89.8054 68.6477 90.5102C68.6477 91.2337 69.4851 92.5704 70.6216 93.6153C72.1867 95.0543 72.0296 95.6633 70.4023 94.4454C69.4971 93.7679 68.9066 92.9143 68.6164 91.8629C68.3781 90.9994 68.1017 90.0773 68.0211 89.8031C67.9404 89.5289 67.7118 89.41 67.5198 89.5264C67.3279 89.6428 67.0601 89.4429 66.9245 89.096C66.5272 88.0803 65.8748 89.1003 66.1725 90.2643C66.3579 90.989 66.5348 91.1762 66.8618 90.9099C67.188 90.6442 67.4628 90.8481 67.7704 91.6477C68.0078 92.2647 68.0817 92.7852 67.9271 92.7852C67.3649 92.7852 65.5459 90.6285 65.5459 89.9568C65.5459 89.3584 65.4731 89.3213 64.9193 89.7723C64.336 90.2474 64.3032 90.1396 64.4806 88.3274C64.6499 86.5994 64.5742 86.3186 63.9166 86.1138C62.8809 85.7912 62.19 86.4757 62.82 87.2206C63.1029 87.5551 63.1668 88.0078 62.9767 88.2966C62.7987 88.5667 62.6634 89.1395 62.6634 89.5571C62.6634 90.08 62.3581 90.3612 61.6921 90.4487C59.9537 90.6771 59.8812 91.248 61.5981 91.248C63.7775 91.248 63.8505 92.2122 61.6921 92.57C59.6772 92.9041 59.6972 93.5231 61.7234 93.5231C63.6106 93.5231 63.6279 94.2872 61.7547 94.8144C60.1252 95.2729 60.1919 95.7981 61.8801 95.7982C63.5364 95.7981 63.6642 96.4995 62.0681 96.8127C61.4296 96.938 60.9088 97.1975 60.9088 97.3661C60.9088 97.7908 62.3434 98.1778 62.82 97.8888C63.0347 97.7586 63.2273 97.9218 63.2273 98.2269C63.2273 98.532 62.6782 98.9498 62.0054 99.18C60.6168 99.655 60.7336 99.9672 62.3187 100.133C63.7002 100.278 64.0164 101.117 62.6947 101.117C62.1576 101.117 61.6355 101.308 61.5041 101.517C61.2595 101.905 61.5561 101.987 63.196 102.039C64.6136 102.085 64.6608 102.994 63.2587 103.269C61.4551 103.623 61.4114 104.161 63.196 104.161C65.2797 104.161 65.2061 104.732 63.0393 105.267C62.0818 105.504 61.2848 105.868 61.2848 106.097C61.2848 106.51 62.4787 106.413 64.2926 105.851C64.9222 105.656 65.1699 105.729 65.1699 106.128C65.1699 106.458 64.3115 106.995 63.0393 107.419C60.3857 108.304 60.2962 108.828 62.8513 108.495L64.7939 108.249V109.602C64.7939 111.379 63.9268 111.855 61.1908 111.539C58.3518 111.212 55.7631 112.264 54.8304 114.183C54.469 114.927 54.0596 115.536 53.9218 115.536C52.9467 115.536 53.2108 113.701 54.4231 112C54.8409 111.414 55.094 110.845 54.9558 110.709C54.5612 110.322 51.2532 112.2 49.8174 113.63C49.1024 114.342 48.4158 114.806 48.2821 114.675C47.8785 114.279 48.8906 112.277 50.068 111.17C51.284 110.027 54.0374 109.316 54.7051 109.971C54.9917 110.252 55.1124 110.024 55.1124 109.172C55.1124 108.504 54.9492 107.942 54.7365 107.942C54.5237 107.942 54.3291 108.111 54.3291 108.28C54.3291 108.45 53.4096 108.809 52.2926 109.08C51.1754 109.35 49.1808 110.154 47.8435 110.863C46.5063 111.571 45.3182 112.123 45.2116 112.123C44.8745 112.123 45.9185 110.461 46.5589 109.971C48.1085 108.785 52.1569 106.802 52.7312 106.958C53.0825 107.054 53.7367 107.257 54.2038 107.389C54.995 107.611 55.0588 107.534 54.8618 106.19C54.378 102.891 53.9618 101.833 53.2012 102.07C52.8046 102.193 52.3668 102.103 52.2299 101.885C52.093 101.668 51.67 101.517 51.29 101.517C49.5192 101.517 48.0814 97.377 48.9401 94.7529C49.4079 93.3234 50.3153 92.0167 50.8513 92.0167C51.0084 92.0167 51.4228 92.6479 51.7599 93.4309C52.3637 94.8331 52.37 94.7965 52.1359 91.371C51.9198 88.2101 51.9813 87.7846 52.7626 86.5442C53.3022 85.6875 54.6042 84.6099 56.2717 83.6543C57.7325 82.8171 59.054 81.957 59.1855 81.7482C59.317 81.5394 60.0628 81.1188 60.8461 80.7951C62.3794 80.1616 65.5459 80.3456 65.5459 81.0718C65.5459 81.3103 65.1463 81.374 64.5433 81.2255C63.797 81.0418 63.2017 81.2322 62.2247 81.9634C60.6437 83.1466 60.4871 83.8988 61.9741 83.1624C63.4831 82.4151 66.1975 82.146 67.5511 82.609C68.4119 82.9034 68.9398 83.5136 69.6503 85.0378C70.5695 87.0096 71.3736 87.6906 71.3736 86.5135C71.3736 86.2003 71.1459 85.9294 70.9036 85.9294C70.5992 85.9294 70.5377 85.2402 70.6843 83.6543C70.8633 81.7175 70.7954 81.4077 70.3396 81.7789C70.0225 82.0371 69.3895 82.1152 68.773 81.9634C67.7292 81.7063 67.7133 81.6929 69.337 80.9796C70.2357 80.5848 71.2469 80.3692 71.5616 80.4877C72.2514 80.7475 72.2965 81.8264 71.6555 82.4553C71.3162 82.7883 71.3111 83.0089 71.6242 83.3161C72.142 83.8243 73.3969 82.1837 73.1281 81.3485C73.0347 81.0581 72.8805 80.3547 72.7522 79.7805C72.5935 79.07 72.2399 78.7353 71.7182 78.7353C71.2967 78.7353 70.9662 78.8954 70.9662 79.1042C70.9662 79.313 70.5133 79.4731 69.9637 79.4731C69.3344 79.4731 69.0458 79.3107 69.149 79.012C69.2526 78.7124 68.6411 78.3915 67.5198 78.1204L65.7339 77.69L68.0837 77.6285C70.7151 77.5708 70.3617 76.8548 67.6764 76.7984C66.8253 76.7805 65.7835 76.6405 65.3579 76.4602C64.8888 76.2615 65.7647 76.2036 67.5824 76.3372C69.7098 76.4936 70.5903 76.4309 70.5903 76.122C70.5903 75.8533 69.8073 75.6773 68.5537 75.6609C65.1006 75.6155 64.5674 74.9839 67.9584 74.9538C70.3536 74.9324 70.9662 74.8245 70.9662 74.3696C70.9662 73.926 71.4949 73.7985 73.3788 73.7855C74.7087 73.7763 76.5068 73.5022 77.3579 73.2014C78.3653 72.8453 78.8837 72.6814 79.0185 72.7094ZM57.9009 73.1091C57.0137 73.1574 55.4884 73.5604 55.4884 73.847C55.4884 74.0325 55.747 74.1851 56.0524 74.1852C56.8759 74.1851 58.7363 73.406 58.4962 73.1706C58.4165 73.0923 58.1967 73.093 57.9009 73.1091ZM82.5903 73.4165C82.8031 73.4165 82.9663 73.4782 82.9663 73.5703C82.9663 73.6623 82.8031 73.8409 82.5903 73.97C82.3775 74.099 82.183 74.0373 82.183 73.8162C82.183 73.5951 82.3775 73.4165 82.5903 73.4165ZM18.9243 73.5396C18.8367 73.5659 18.724 73.6425 18.5483 73.7855C18.2315 74.0435 18.0537 74.3963 18.1724 74.5848C18.4775 75.0694 19.1436 74.6172 19.1436 73.9085C19.1436 73.6068 19.0702 73.4957 18.9243 73.5396ZM64.7626 73.5703C65.9492 73.5 69.807 73.9518 69.807 74.2159C69.807 74.6489 67.2831 74.5965 65.6086 74.1237C64.8936 73.9218 64.3728 73.6925 64.4493 73.6318C64.4912 73.5985 64.593 73.5803 64.7626 73.5703ZM61.2848 73.7855C61.4975 73.7855 61.6921 73.8779 61.6921 73.97C61.6921 74.062 61.4975 74.2406 61.2848 74.3696C61.072 74.4987 60.9088 74.4063 60.9088 74.1852C60.9088 73.964 61.072 73.7855 61.2848 73.7855ZM58.1516 74.9845C57.0388 75.0302 55.1124 75.467 55.1124 75.7838C55.1124 76.0275 55.7636 76.0902 56.8983 75.9376C58.761 75.6871 59.2577 75.4857 58.8723 75.1075C58.7816 75.0185 58.5226 74.9693 58.1516 74.9845ZM60.8148 75.8453C60.9647 75.8492 61.1632 76.0168 61.5041 76.2757C62.1316 76.7525 62.168 76.8087 61.5981 76.6139C60.8205 76.3482 60.6955 76.835 61.3788 77.5055C61.7398 77.8598 61.6836 77.9562 61.0968 77.9667C60.4433 77.9783 60.4469 78.0808 61.2848 78.5508L62.256 79.0734L61.0341 79.1042H59.8435L60.1882 77.5055C60.4697 76.276 60.5648 75.8388 60.8148 75.8453ZM21.5562 76.0913C22.2035 76.0338 22.6215 76.9109 22.6215 78.766C22.6215 80.6921 21.7769 82.308 20.3029 83.1624C19.6635 83.533 19.1436 83.9475 19.1436 84.0847C19.1436 84.2219 20.0445 84.411 21.1489 84.5151C22.7906 84.6699 23.3464 84.9363 24.2507 85.9294C25.2104 86.9832 25.3226 87.3857 25.222 89.0652C25.0817 91.4072 24.1589 92.1022 24.1567 89.8646C24.1549 88.1419 22.996 86.0867 21.6815 85.4989C20.5746 85.0041 18.6479 85.3106 16.8878 86.2368C15.0785 87.1889 15.1602 87.6682 17.1384 87.528C18.8209 87.4089 21.8382 88.3687 21.8382 89.0345C21.8382 89.2116 21.388 89.3419 20.8669 89.3419C19.5477 89.3419 18.2057 91.2612 17.2324 94.4762C16.3773 97.301 16.4833 98.0757 17.5144 96.6282C18.6691 95.0075 19.9483 93.9626 21.3055 93.5231C22.9639 92.9861 24.6399 93.3226 24.47 94.1687C24.3403 94.8154 24.03 95.035 21.7755 96.0134C19.6441 96.9383 19.0899 98.7473 18.9557 105.421C18.9067 107.852 18.6916 110.037 18.423 110.525C17.868 111.532 16.4856 112.244 14.0366 112.83C13.0533 113.066 11.9707 113.376 11.6241 113.507C10.6959 113.856 10.809 112.306 11.812 110.924C12.2609 110.306 12.5778 109.777 12.5013 109.725C12.425 109.674 11.9354 109.451 11.4047 109.233L10.4334 108.834L11.6867 108.188C12.9758 107.534 13.3534 106.804 12.4073 106.805C12.1143 106.805 11.6695 106.564 11.4047 106.251C10.9892 105.76 11.0827 105.708 12.1254 105.913C13.4493 106.173 13.5876 105.869 12.7207 104.745C12.1412 103.993 11.9377 102.654 12.4073 102.654C12.5502 102.654 13.0079 102.943 13.41 103.3C14.041 103.86 14.1937 103.87 14.5066 103.392C15.0594 102.547 14.5084 99.6374 13.41 97.5198C12.1579 95.1061 11.9781 90.5012 13.034 87.8355C14.3564 84.4962 15.0882 83.2897 15.6972 83.2854C16.5298 83.2795 17.2907 82.3641 18.5483 79.8728C19.7757 77.4414 20.8226 76.1565 21.5562 76.0913ZM66.7678 78.766C66.9781 78.7635 67.2063 78.8101 67.3945 78.8582C67.7709 78.9545 67.5628 79.035 66.9245 79.0427C66.2861 79.0504 65.9732 78.9622 66.2352 78.8582C66.366 78.8063 66.5574 78.7686 66.7678 78.766ZM57.2117 79.1042C55.3734 79.1109 53.1699 79.5736 53.1699 79.9343C53.1699 80.3435 57.4841 79.9026 57.9949 79.4424C58.2114 79.2473 57.884 79.1017 57.2117 79.1042ZM81.8383 80.6106C80.7618 80.6106 79.8645 80.8015 79.8645 81.0103C79.8645 81.2191 80.6428 81.3792 81.5877 81.3792C82.5327 81.3793 83.3987 81.2191 83.5302 81.0103C83.6776 80.7763 83.0447 80.6106 81.8383 80.6106ZM55.8644 81.0718C55.3698 81.0718 54.6309 81.1631 53.7652 81.3792C52.7233 81.6394 52.7942 81.6771 54.4231 81.7174C55.4213 81.7421 56.3281 81.588 56.4597 81.3792C56.5958 81.1631 56.359 81.0718 55.8644 81.0718ZM16.1671 81.9019C16.3059 81.879 16.4178 81.9513 16.4178 82.1171C16.4178 82.3382 16.2546 82.5167 16.0418 82.5168C15.829 82.5167 15.6345 82.4551 15.6345 82.3631C15.6345 82.271 15.829 82.0924 16.0418 81.9634C16.095 81.9311 16.121 81.9095 16.1671 81.9019ZM116.554 82.0249C115.798 82.1173 113.922 84.3403 113.922 85.3452C113.922 86.0337 114.775 85.3545 115.52 84.054C115.998 83.2188 116.524 82.5167 116.711 82.5168C116.897 82.5167 116.945 82.3395 116.805 82.1171C116.752 82.0329 116.662 82.0117 116.554 82.0249ZM59.8122 84.4536C59.626 84.4665 59.3301 84.6501 59.0602 84.9148C58.4571 85.5066 58.4697 85.5604 59.0602 85.5604C59.7656 85.5604 60.3497 84.8888 59.9688 84.5151C59.9357 84.4826 59.8743 84.4494 59.8122 84.4536ZM82.2143 84.7918C81.0089 84.7918 80.2903 84.9415 80.4284 85.1608C80.672 85.5474 83.5818 85.4483 84.0003 85.0378C84.1342 84.9063 83.3264 84.7918 82.2143 84.7918ZM80.5224 86.6365C80.0105 86.6704 79.6477 86.7827 79.5825 86.9746C79.466 87.3176 80.0841 87.4533 81.8697 87.4358C83.6056 87.4187 84.0727 87.3253 83.4989 87.0976C82.8031 86.8216 81.8734 86.6567 81.0864 86.6365C80.8897 86.6314 80.6931 86.6252 80.5224 86.6365ZM60.9088 87.1284C60.7334 87.1283 60.5718 87.1679 60.4388 87.2206C60.1728 87.3259 60.3768 87.405 60.9088 87.4051C61.4408 87.4051 61.6761 87.3259 61.4101 87.2206C61.2771 87.1679 61.084 87.1284 60.9088 87.1284ZM61.0968 88.6041C60.5648 88.6041 60.1255 88.7642 60.1255 88.973C60.1255 89.1818 60.5648 89.3419 61.0968 89.3419C61.6287 89.3419 62.068 89.1818 62.0681 88.973C62.068 88.7642 61.6288 88.6041 61.0968 88.6041ZM81.1178 88.6041C79.5889 88.5978 79.4489 89.2448 80.9297 89.4649C82.9231 89.7612 84.1256 89.7393 84.1256 89.4034C84.1256 88.9777 82.7417 88.6108 81.1178 88.6041ZM81.995 90.8791C81.3017 90.8798 80.6051 90.9865 80.4597 91.2173C80.3363 91.4133 80.8792 91.6411 81.6817 91.7092C83.3562 91.8514 83.8457 91.7184 83.5302 91.2173C83.385 90.9868 82.6883 90.8785 81.995 90.8791ZM80.3971 92.7238C80.2096 92.7281 80.0333 92.7306 79.8645 92.7545C79.5453 92.7997 80.0662 93.0664 81.0237 93.3387C83.255 93.9729 83.3422 93.9987 83.3423 93.5538C83.3423 93.1236 81.7098 92.693 80.3971 92.7238ZM65.1072 94.3224C65.3508 94.2847 65.7427 94.5284 66.3605 94.9988C66.868 95.3852 67.5453 95.8021 67.8644 95.9211C68.1836 96.0402 67.6219 96.1506 66.6111 96.1671C64.9007 96.195 64.7938 96.1281 64.7939 95.2448C64.7939 94.6787 64.8636 94.3602 65.1072 94.3224ZM72.2195 94.3839C72.2968 94.3564 72.4221 94.4289 72.5955 94.5992C72.8474 94.8462 72.9561 95.1369 72.8462 95.2448C72.5879 95.4981 72.1255 95.0444 72.1255 94.5377C72.1255 94.4485 72.1732 94.4005 72.2195 94.3839ZM81.4624 94.7221C81.2519 94.7247 81.0607 94.7624 80.9297 94.8144C80.6678 94.9183 80.9807 94.9758 81.619 94.9681C82.2574 94.9603 82.4653 94.8799 82.089 94.7836C81.9008 94.7355 81.6728 94.7196 81.4624 94.7221ZM52.3239 95.0295C52.281 95.0444 52.2427 95.0785 52.1986 95.1218C52.0871 95.2311 52.1343 95.6488 52.2926 96.0441C52.5665 96.7282 52.5957 96.7355 52.7312 96.0749C52.8421 95.5342 52.6785 95.0769 52.4492 95.0295C52.4111 95.0217 52.3668 95.0147 52.3239 95.0295ZM75.1021 95.4292C74.5497 95.4292 74.8562 96.6021 75.6034 97.3354C76.3705 98.088 78.3292 98.3963 78.3292 97.7658C78.3292 97.4241 75.5733 95.4292 75.1021 95.4292ZM69.7757 96.6897C69.8864 96.6867 69.9967 96.6857 70.089 96.7205C70.71 96.9543 70.674 97.0625 69.807 97.7043L68.8357 98.4114L70.4963 98.1962C71.5896 98.0523 72.1255 98.1252 72.1255 98.4114C72.1255 98.6477 71.7785 98.8418 71.3422 98.8418C70.3108 98.8418 68.6359 99.7108 67.7078 100.717C67.303 101.156 66.8223 101.517 66.6425 101.517C66.019 101.517 66.3426 100.11 67.1125 99.426C67.538 99.0481 67.8644 98.5369 67.8644 98.2884C67.8644 97.5944 68.9999 96.7107 69.7757 96.6897ZM65.1699 96.8742C65.2304 96.8765 65.2881 96.8624 65.3579 96.8742C66.4834 97.0647 66.5374 97.269 65.7025 97.8888C64.6479 98.6717 64.307 98.5959 64.4493 97.6121C64.5275 97.0721 64.7465 96.8577 65.1699 96.8742ZM52.6059 97.7658C52.4332 97.7877 52.4071 97.9568 52.5119 98.3192C52.6248 98.7092 52.8422 99.5756 52.9819 100.256C53.1214 100.936 53.3566 101.428 53.5145 101.332C53.9891 101.044 53.3904 97.9806 52.8252 97.7965C52.736 97.7674 52.6634 97.7585 52.6059 97.7658ZM66.1725 98.5651C66.3184 98.5487 66.2661 98.8143 66.1099 99.4567C65.6429 101.378 65.3072 101.712 65.0132 100.563C64.8667 99.9906 64.7931 99.4911 64.8566 99.4567C64.9201 99.4223 65.2855 99.1631 65.6712 98.8726C65.9147 98.6891 66.085 98.575 66.1725 98.5651ZM73.8801 99.1493L71.5616 100.902C70.2909 101.874 68.903 103.184 68.4911 103.822C68.079 104.461 67.5329 105.962 67.2691 107.143C66.8379 109.074 66.7793 109.137 66.7051 107.942C66.5659 105.699 66.7693 104.799 67.7704 102.716C68.8781 100.41 69.6903 99.7747 72.1255 99.3952L73.8801 99.1493ZM77.9846 100.072C78.084 100.064 78.1712 100.061 78.2666 100.072C79.5905 100.224 80.0168 101.574 79.0498 102.593C78.3135 103.368 76.0618 103.719 75.478 103.146C74.6427 102.326 76.4938 100.192 77.9846 100.072ZM75.3214 100.164C75.4921 100.149 75.6034 100.159 75.6034 100.225C75.6034 100.32 75.325 100.811 74.9767 101.332C74.6285 101.854 74.35 102.963 74.3501 103.792C74.3501 104.62 74.2901 105.298 74.2248 105.298C73.9586 105.298 72.9088 103.579 72.9088 103.146C72.9088 102.89 72.592 102.523 72.2195 102.316C71.6183 101.981 71.6102 101.858 72.1255 101.363C72.5799 100.926 74.5819 100.229 75.3214 100.164ZM69.9637 106.128C69.99 106.119 69.9942 106.127 70.0263 106.159C70.1549 106.285 70.2008 106.623 70.089 106.897C69.9655 107.2 69.8569 107.093 69.8383 106.651C69.8256 106.351 69.8845 106.157 69.9637 106.128ZM10.1828 123.898C10.3994 123.898 10.1757 124.522 9.65015 125.282C8.40069 127.088 8.43057 127.789 9.90082 129.432L11.1227 130.785L15.2272 130.508C18.3115 130.311 20.1055 129.978 22.5275 129.125C25.0276 128.244 26.193 128.03 27.6972 128.172C29.4846 128.34 29.6461 128.276 29.9844 127.403C30.1861 126.882 30.2632 126.151 30.1411 125.774C29.8907 124.999 30.9314 124.267 32.303 124.267C33.1913 124.267 33.2119 124.523 32.4596 127.464C32.2063 128.455 32.2004 128.466 34.6528 128.51C38.0569 128.57 38.407 128.512 40.6059 127.495C44.7836 125.563 48.1277 124.863 48.7208 125.804C48.8522 126.013 49.2916 126.173 49.692 126.173C50.7666 126.173 50.9919 126.87 50.2874 127.926C49.7066 128.795 49.7078 128.848 50.35 128.848C50.7288 128.848 51.6432 128.669 52.3866 128.448C53.13 128.228 55.4254 128.008 57.4623 127.956C60.5701 127.877 61.3398 127.709 62.35 127.003C64.0333 125.827 66.4978 125.036 68.4911 125.036C70.1672 125.036 70.183 125.042 70.183 126.358C70.183 127.911 70.3117 127.927 73.2221 126.911C74.5181 126.459 76.9282 126.061 79.0812 125.927C82.7419 125.7 82.7829 125.713 86.8201 127.311L90.8932 128.909L93.619 128.479C97.9132 127.803 100.803 128.68 101.765 130.939C102.641 132.996 102.51 133.398 100.919 133.398C100.003 133.398 98.5216 132.87 96.6582 131.861C93.5173 130.16 92.5945 130.068 92.2405 131.492C91.8939 132.886 89.9238 132.697 87.0708 131C84.1428 129.259 82.0541 128.974 77.8906 129.77C72.5601 130.79 64.2266 131.798 63.854 131.461C63.6604 131.286 64.1321 130.876 64.9193 130.508C65.6952 130.145 66.3292 129.663 66.3292 129.463C66.3292 129.026 61.7557 129.432 61.1281 129.924C60.8935 130.108 60.1182 130.362 59.3735 130.477C58.6287 130.592 56.7083 131.028 55.1124 131.461C52.1142 132.275 50.2011 132.266 47.2169 131.4L45.7129 130.969L46.5902 130.293C47.0648 129.916 47.7673 129.586 48.1568 129.586C48.5462 129.586 48.9784 129.393 49.1281 129.155C49.498 128.568 46.8114 129.083 45.243 129.893C44.5102 130.272 43.2561 130.479 41.8591 130.447C40.1348 130.406 38.7774 130.7 36.0314 131.738C32.831 132.947 32.1891 133.06 29.8278 132.875C27.5295 132.696 27.0638 132.536 26.0993 131.523C25.4922 130.885 24.8859 130.354 24.752 130.354C24.6182 130.354 23.5252 130.777 22.3082 131.277C21.0911 131.777 18.8389 132.528 17.3264 132.968C15.8139 133.407 14.088 133.776 13.4726 133.767C10.2902 133.722 6.48826 129.387 7.45694 126.911C7.88109 125.827 9.62017 123.898 10.1828 123.898ZM47.9375 126.204C47.3098 126.211 46.3702 126.453 45.8383 126.757C44.914 127.286 44.9265 127.321 46.5902 127.096C48.6497 126.817 49.6058 126.184 47.9375 126.204Z" fill="#800000"/>
</svg>
