<?xml version="1.0" standalone="no"?>
<!DOCTYPE svg PUBLIC "-//W3C//DTD SVG 20010904//EN"
 "http://www.w3.org/TR/2001/REC-SVG-20010904/DTD/svg10.dtd">
<svg version="1.0" xmlns="http://www.w3.org/2000/svg"
 width="556.000000pt" height="556.000000pt" viewBox="0 0 556.000000 556.000000"
 preserveAspectRatio="xMidYMid meet">
<metadata>
Created by potrace 1.14, written by Peter Selinger 2001-2017
</metadata>
<g transform="translate(0.000000,556.000000) scale(0.100000,-0.100000)"
fill="#000000" stroke="none">
<path d="M220 2790 l0 -2770 28 -1 c15 0 1160 -1 2545 -2 1670 -1 2521 1 2525
8 4 6 7 1253 8 2773 l1 2762 -2554 0 -2553 0 0 -2770z m5007 2677 c10 -10 11
-5334 1 -5350 -11 -18 -3884 -13 -4823 5 -61 2 -92 6 -95 15 -7 16 -3 5193 3
5261 3 30 8 57 11 60 3 3 210 7 458 10 249 2 454 5 455 6 7 6 3983 -1 3990 -7z"/>
<path d="M2167 5413 c-1 0 -279 -4 -617 -7 -645 -7 -1091 -14 -1125 -20 -13
-2 -21 -11 -22 -27 -16 -207 -39 -3540 -34 -4926 1 -202 2 -213 21 -223 42
-23 198 -28 995 -35 336 -3 837 -8 1115 -11 813 -9 2010 -4 2074 9 60 12 18
141 -73 225 -83 75 -166 110 -285 117 -86 5 -136 13 -136 22 0 3 14 25 30 50
l31 45 -36 70 c-37 75 -48 123 -17 77 33 -49 139 -139 164 -139 8 0 34 10 59
21 73 36 172 69 204 69 22 0 36 -9 52 -32 l22 -32 19 45 c19 43 19 44 0 47
-15 3 -17 6 -7 18 6 7 15 12 19 9 7 -5 77 60 194 182 71 75 101 92 150 87 77
-8 106 -41 105 -117 -1 -97 -52 -149 -161 -163 -52 -7 -59 -17 -28 -42 38 -32
7 -50 -102 -59 -63 -6 -78 8 -27 23 26 7 29 11 18 21 -11 9 -26 7 -63 -6 -64
-22 -78 -43 -46 -69 40 -32 0 -79 -73 -84 -45 -3 -47 -14 -5 -36 76 -41 121
-119 114 -199 -2 -18 -16 -55 -30 -84 -19 -35 -24 -55 -17 -62 6 -6 97 -10
247 -9 205 0 239 2 253 16 15 15 16 225 16 2624 l0 2607 -1498 0 c-824 0
-1499 -1 -1500 -2z m79 -121 c10 -11 36 -40 58 -65 54 -66 147 -108 316 -142
8 -2 35 -9 60 -16 25 -7 50 -14 55 -15 6 -2 28 -10 50 -18 74 -26 74 -2 0 82
-30 35 -55 71 -55 79 0 25 30 53 57 53 53 0 167 -151 193 -255 13 -52 40 -81
124 -134 93 -58 254 -136 305 -147 7 -1 18 -7 24 -13 8 -8 5 -11 -8 -12 -11 0
-29 -2 -40 -5 -74 -15 -156 -2 -215 36 -25 15 -65 38 -90 49 -25 12 -69 43
-98 69 -65 59 -167 117 -178 101 -4 -6 -6 -40 -5 -74 2 -82 -18 -111 -66 -95
-34 12 -48 45 -44 107 2 33 0 34 -74 47 -31 5 -114 17 -122 17 -12 1 -73 40
-101 65 -14 13 -33 24 -43 24 -32 0 -61 -83 -33 -94 23 -9 16 -41 -16 -71 -28
-27 -30 -27 -54 -12 -32 21 -97 99 -116 139 -16 34 -34 42 -123 51 -31 4 -93
21 -137 38 -45 17 -87 28 -95 25 -8 -3 -16 -19 -16 -36 -1 -16 -2 -33 -4 -37
-12 -47 -20 -60 -40 -75 -21 -16 -24 -16 -42 0 -20 18 -45 76 -36 85 9 10 -32
25 -94 36 -33 6 -88 23 -122 36 -96 39 -128 30 -97 -29 23 -45 7 -71 -40 -70
-200 6 -390 40 -534 96 -62 24 -72 34 -64 63 18 60 78 78 145 45 112 -57 273
-95 307 -72 11 8 18 25 21 54 2 19 51 58 72 58 35 0 208 -38 254 -55 22 -9 72
-17 110 -18 73 -2 71 -4 74 45 3 48 62 58 111 18 100 -82 180 -114 300 -124
36 -2 72 -7 80 -9 76 -25 87 -14 44 49 -21 30 -25 46 -21 76 5 37 22 68 36 68
4 0 16 -8 27 -18z m2583 -402 c69 -34 113 -122 113 -220 -1 -180 -164 -396
-337 -445 -71 -20 -92 -23 -224 -31 -113 -7 -168 -11 -183 -13 -5 0 -8 -31 -8
-67 0 -57 -2 -65 -17 -62 -10 2 -25 22 -34 48 -21 56 -44 63 -63 19 -10 -23
-11 -43 -4 -72 13 -60 8 -73 -19 -49 -13 11 -23 23 -23 28 0 4 -12 20 -26 35
-34 35 -58 28 -85 -27 -25 -52 -27 -121 -5 -184 17 -51 15 -58 -17 -41 -42 22
-68 77 -81 165 -7 48 -66 12 -87 -52 -15 -46 -5 -141 21 -192 28 -55 25 -65
-12 -39 -56 39 -86 83 -90 127 -2 35 -20 58 -37 48 -14 -9 0 -273 16 -298 2
-5 0 -8 -6 -8 -16 0 -81 91 -81 114 0 35 -12 66 -24 66 -12 0 -68 -97 -73
-127 -6 -38 -5 -120 1 -150 14 -62 96 -91 262 -94 141 -2 178 36 169 175 -5
69 -4 77 9 67 29 -24 58 -100 58 -150 -1 -49 -15 -89 -53 -148 -11 -18 -23
-57 -26 -87 -5 -49 -4 -55 18 -67 13 -7 25 -12 27 -11 1 1 11 2 22 2 26 0 48
-39 29 -51 -19 -12 -25 -11 -44 7 -20 21 -42 12 -63 -27 -22 -40 -63 -91 -69
-85 -2 2 4 21 15 43 21 42 22 121 1 160 -15 29 -76 68 -118 78 -18 4 -64 8
-101 10 -80 3 -157 35 -219 90 -42 38 -66 41 -43 5 18 -29 15 -57 -15 -145
-29 -82 -28 -80 -146 -188 -38 -34 -28 -46 17 -22 60 32 107 87 150 175 48
100 66 108 140 65 44 -26 52 -38 62 -90 2 -14 13 -40 23 -58 27 -49 20 -217
-10 -217 -5 0 -10 27 -10 60 -1 33 -2 63 -3 68 -16 59 -29 92 -40 101 -21 18
-25 2 -15 -59 5 -30 11 -72 14 -93 3 -20 12 -54 19 -75 9 -26 10 -44 3 -59
-15 -33 -34 -29 -32 7 3 54 -15 153 -32 172 -25 27 -44 6 -32 -35 5 -18 12
-57 15 -87 3 -30 7 -67 8 -82 4 -30 -9 -56 -20 -45 -9 9 -10 15 -19 100 -6 65
-20 92 -34 68 -5 -7 -7 -62 -5 -122 3 -97 1 -111 -14 -116 -9 -3 -30 -11 -47
-18 -42 -19 -100 -28 -123 -21 -16 5 -44 51 -47 76 -3 20 -18 50 -26 50 -9 0
-10 -2 -14 -62 -3 -52 -10 -65 -39 -70 -38 -7 -46 4 -50 63 -2 30 -5 58 -5 63
-1 5 -8 3 -16 -4 -10 -8 -14 -25 -12 -46 7 -55 -17 -68 -110 -61 -80 7 -134
15 -141 22 -3 2 -1 16 2 31 7 25 8 25 20 8 18 -25 43 -5 42 33 -1 23 -5 28
-24 26 -23 -3 -23 -2 -7 25 21 34 86 84 166 127 40 21 56 34 46 38 -28 11 -85
-13 -174 -72 -91 -60 -125 -89 -156 -135 -10 -14 -24 -26 -31 -26 -19 0 -79
67 -71 80 4 6 31 25 61 41 30 17 54 33 54 36 0 14 -75 -9 -105 -32 -19 -14
-39 -25 -45 -25 -15 0 -59 52 -60 70 0 9 29 32 65 53 99 57 80 82 -23 30 -65
-33 -59 -37 -141 118 l-61 116 27 12 c16 6 62 19 103 30 91 23 106 43 27 36
-49 -4 -93 -16 -149 -40 -13 -5 -18 -3 -18 9 0 10 13 22 30 28 17 5 35 19 41
29 11 22 79 59 109 59 22 0 27 -15 8 -26 -9 -6 -5 -10 11 -14 23 -5 76 -73
198 -256 47 -70 86 -106 131 -119 26 -8 30 11 4 19 -21 7 -88 64 -81 70 2 2
23 6 47 9 112 12 267 129 324 245 29 59 33 75 34 161 1 53 -5 123 -12 156 -26
120 -27 150 -6 191 10 22 20 53 20 71 1 50 17 69 69 83 55 15 77 29 48 31 -11
1 -40 3 -65 4 -25 2 -99 6 -165 9 -133 7 -166 11 -210 28 -52 20 -112 76 -139
130 -25 51 -35 128 -16 128 5 0 23 -21 41 -47 81 -120 103 -130 309 -138 153
-6 210 -12 255 -28 41 -15 40 -12 44 -91 1 -18 4 -17 31 9 17 16 30 34 30 41
0 7 -53 38 -117 69 -65 31 -126 61 -135 66 -10 5 -24 9 -32 9 -8 0 -17 4 -21
9 -3 6 2 9 12 7 10 -2 41 -7 68 -11 28 -5 52 -9 55 -10 13 -3 85 -17 85 -16 0
0 22 -6 49 -14 85 -26 86 -19 11 70 -119 140 -144 203 -45 114 54 -48 114 -80
205 -110 80 -25 125 -31 125 -15 0 15 -37 75 -63 103 -19 22 -19 23 -1 30 18
7 343 8 759 3 195 -3 239 4 315 48 126 73 206 235 151 303 -16 20 -28 24 -68
23 -78 -1 -101 -18 -249 -176 -48 -51 -70 -67 -100 -73 -68 -13 -214 -13 -288
2 -71 13 -106 19 -181 28 -22 3 -56 7 -75 10 -34 5 -76 10 -170 20 -25 3 -58
7 -75 9 -16 2 -52 7 -80 10 -92 11 -150 18 -170 22 -49 9 -112 16 -157 17 -80
1 -54 17 30 18 251 3 601 10 622 13 14 2 31 4 38 5 27 2 0 20 -66 42 -37 13
-69 24 -72 24 -3 1 -18 7 -35 14 -16 7 -88 35 -158 62 -107 40 -229 93 -246
106 -18 14 23 8 124 -18 153 -39 152 -38 173 -43 9 -2 98 -27 196 -56 l180
-51 37 40 c64 69 194 119 299 115 30 -1 88 -12 129 -23 l75 -20 45 21 c124 57
225 67 300 28z m-3600 -18 c15 -18 45 -63 66 -102 46 -85 96 -145 137 -166 40
-21 125 -26 157 -9 64 33 146 137 200 253 27 57 36 59 113 21 64 -33 66 -61
11 -142 -14 -20 -23 -40 -20 -43 3 -3 45 3 94 14 48 10 97 17 108 15 11 -1 37
-5 57 -8 55 -8 127 -34 162 -58 92 -66 149 -127 184 -197 23 -47 27 -67 27
-140 -1 -72 -5 -94 -28 -142 -29 -60 -50 -77 -122 -97 -101 -26 -199 -8 -249
47 -21 24 -29 101 -14 143 11 32 49 63 89 72 71 18 16 112 -78 136 -92 24
-162 3 -225 -67 -49 -54 -68 -93 -73 -150 -24 -258 -24 -2756 0 -2917 2 -16 6
-52 9 -80 14 -143 40 -217 96 -274 64 -64 150 -86 341 -90 43 -1 46 -3 65 -43
37 -81 74 -75 74 13 0 26 6 51 13 57 6 6 39 17 73 26 102 26 364 115 454 153
172 73 328 183 490 343 190 189 232 245 343 470 106 213 123 259 207 575 28
105 31 148 35 540 6 480 12 575 42 665 61 179 234 262 413 197 90 -32 135 -70
172 -141 28 -54 30 -73 14 -134 -19 -72 -52 -118 -102 -142 -94 -46 -182 -20
-223 65 l-24 50 -14 -34 c-11 -27 -16 -104 -19 -325 -10 -739 -4 -1739 11
-1825 2 -14 7 -50 10 -80 6 -62 19 -115 46 -189 10 -29 19 -59 19 -67 0 -8
-38 -39 -85 -70 -47 -31 -85 -60 -85 -65 0 -21 -58 5 -107 49 -57 51 -104 69
-161 65 -46 -4 -76 -26 -107 -79 -24 -40 -26 -48 -15 -81 17 -50 62 -98 150
-160 97 -68 114 -86 105 -116 -4 -13 -13 -30 -20 -38 -7 -8 -22 -34 -34 -58
-36 -71 -53 -73 -173 -14 -57 28 -146 64 -198 80 -168 53 -170 53 -335 69
-102 10 -584 10 -695 0 -47 -4 -114 -10 -150 -12 -36 -2 -89 -7 -117 -10 -142
-14 -170 -17 -198 -21 -16 -3 -46 -6 -65 -9 -19 -2 -67 -11 -106 -20 -39 -9
-75 -15 -80 -13 -19 5 -97 -13 -117 -27 -12 -8 -24 -15 -27 -15 -3 0 -5 40 -4
89 2 108 -22 171 -82 211 -71 47 -203 31 -291 -36 -33 -25 -94 -124 -114 -185
-18 -53 -31 -62 -101 -63 -61 -2 -213 30 -261 55 -35 18 -96 90 -123 145 -19
39 -23 61 -20 97 7 61 36 127 76 169 28 29 38 33 79 32 82 -2 106 -28 103
-114 -4 -107 24 -119 97 -42 67 70 140 207 166 312 2 8 15 72 20 105 12 68 19
673 20 1665 0 1307 -2 1352 -62 1462 -29 54 -48 63 -198 102 -69 18 -95 21
-113 13 -12 -6 -21 -15 -19 -20 3 -11 4 -11 79 -20 88 -11 166 -111 146 -185
-15 -54 -35 -79 -84 -102 -45 -22 -112 -25 -165 -8 -72 24 -159 188 -153 290
7 120 95 204 245 233 38 7 72 13 74 14 3 0 12 1 21 1 14 0 15 7 10 43 -14 86
-13 91 22 109 45 22 78 16 111 -20z m-302 -788 c-8 -43 6 -50 66 -31 73 23
114 22 127 -3 11 -21 15 -19 -65 -35 -32 -7 -95 -72 -95 -100 0 -12 10 -33 23
-47 22 -23 29 -25 93 -21 57 4 74 2 87 -12 10 -9 15 -20 13 -24 -3 -4 -34 -22
-70 -40 -61 -30 -113 -80 -99 -94 3 -3 23 3 45 14 56 29 159 37 181 14 19 -19
12 -30 -36 -55 -61 -31 -121 -111 -157 -210 -14 -39 -18 -70 -15 -128 3 -42 7
-119 9 -171 3 -51 10 -99 16 -106 6 -8 9 -68 6 -166 -4 -143 -14 -215 -35
-264 -39 -88 -65 -137 -68 -128 -3 7 1 22 7 34 7 11 8 25 3 30 -13 13 -33 -5
-39 -35 -4 -25 -20 -64 -57 -146 -28 -60 -97 -177 -114 -192 -16 -14 -23 -15
-55 -3 -21 7 -50 20 -64 30 -33 21 -18 35 38 35 42 0 55 12 32 31 -36 30 -72
138 -69 211 2 60 40 155 42 106 1 -27 54 -174 72 -202 27 -41 23 -51 115 284
7 25 11 51 8 58 -7 21 -32 13 -42 -13 -5 -14 -18 -28 -27 -32 -10 -3 -30 -15
-45 -25 -14 -10 -29 -18 -32 -18 -10 0 6 64 23 90 21 34 28 38 62 34 23 -3 29
0 29 16 0 11 -6 20 -12 21 -7 1 -42 2 -78 4 -36 1 -84 10 -108 20 -60 25 -110
90 -79 103 4 2 30 -1 58 -7 79 -17 90 -15 79 13 -5 13 -12 44 -15 67 -3 24 -9
58 -11 74 -8 42 -7 203 1 245 19 103 94 14 100 -119 2 -36 3 -76 4 -88 1 -33
17 -28 31 10 8 17 20 40 29 50 18 21 21 35 25 107 5 70 -6 90 -111 215 -99
117 -112 139 -120 206 -8 66 12 65 52 -2 34 -57 87 -119 103 -119 11 0 10 13
-5 50 -16 39 -15 160 1 212 13 46 13 49 -10 80 -13 18 -33 52 -44 76 -37 79
-21 95 34 35 39 -43 48 -40 91 32 38 65 83 83 72 29z m1808 -44 c22 -11 46
-20 55 -20 8 -1 -2 -10 -22 -20 -20 -11 -39 -24 -43 -30 -7 -11 17 -61 39 -79
33 -27 169 -16 193 15 17 23 8 38 -37 63 -22 12 -40 24 -40 27 0 5 183 -5 188
-11 2 -2 6 -21 9 -43 4 -32 0 -48 -18 -74 -13 -18 -28 -36 -34 -40 -12 -9 -14
-29 -4 -43 15 -21 48 -114 55 -156 12 -75 6 -128 -18 -177 -24 -49 -48 -66
-48 -35 0 10 -9 24 -20 31 -17 10 -19 16 -10 33 16 29 20 58 10 64 -5 3 -11 1
-15 -5 -11 -18 -26 -11 -16 8 13 24 24 100 16 112 -7 11 -65 -18 -65 -31 0
-10 -64 -49 -87 -54 -10 -2 -47 -15 -83 -28 -59 -22 -132 -29 -148 -13 -2 3
-6 24 -7 46 -3 51 24 73 108 89 63 11 91 24 125 54 23 22 29 51 11 62 -27 17
-145 23 -284 14 -69 -5 -80 9 -44 54 30 39 72 58 141 66 4 1 7 23 7 49 -2 48
16 92 36 92 6 0 28 -9 50 -20z m-455 -252 c11 -116 18 -147 42 -212 11 -26 12
-27 25 -10 7 9 15 16 17 13 12 -12 66 -121 66 -133 0 -11 -20 -20 -110 -46
-29 -8 -88 6 -111 26 -14 13 -30 57 -58 159 -8 31 -7 152 2 161 12 12 25 -14
26 -50 0 -17 3 -40 5 -51 2 -11 5 -24 5 -30 1 -5 5 -4 10 4 5 8 10 43 10 79 0
60 5 81 15 71 6 -6 15 -53 22 -119 7 -59 20 -94 33 -86 7 5 3 53 -14 184 -3
26 -2 42 5 42 5 0 10 -1 10 -2z m259 -61 c16 -20 -18 -47 -76 -62 -56 -14 -83
-9 -83 15 0 39 133 78 159 47z m-428 -165 c10 -27 -6 -40 -65 -51 -53 -10 -89
-4 -83 13 5 16 103 65 123 62 10 -2 21 -12 25 -24z m29 -122 c0 -5 -4 -10 -9
-10 -6 0 -13 5 -16 10 -3 6 1 10 9 10 9 0 16 -4 16 -10z m760 0 c13 -8 13 -12
-3 -27 -15 -16 -19 -16 -27 -3 -5 8 -10 21 -10 28 0 14 19 16 40 2z m30 -75
c0 -8 -4 -15 -9 -15 -13 0 -22 16 -14 24 11 11 23 6 23 -9z m1924 -23 c57 -26
102 -66 134 -121 24 -41 27 -56 27 -133 0 -87 0 -88 -57 -197 -60 -115 -68
-162 -24 -140 11 7 31 20 43 31 21 20 21 20 32 1 14 -27 40 -144 35 -158 -3
-6 -20 -19 -39 -29 -51 -28 -122 -103 -150 -160 -37 -75 -35 -86 23 -86 54 0
145 -38 156 -65 3 -10 5 -19 4 -20 -2 -1 -24 -13 -50 -28 -25 -15 -62 -45 -81
-67 -43 -50 -94 -144 -103 -190 -8 -40 -12 -201 -6 -243 l4 -28 41 40 c49 50
76 60 94 35 23 -32 13 -109 -23 -177 -113 -212 -123 -259 -85 -386 28 -91 27
-120 -4 -154 -46 -49 -55 -37 -61 81 -4 72 -10 165 -13 206 -1 5 -4 6 -8 2 -5
-4 -8 -96 -8 -205 0 -222 1 -218 -89 -287 -48 -37 -73 -43 -82 -19 -6 15 -44
29 -106 40 -23 3 -45 16 -58 32 -25 32 -21 37 16 22 51 -20 138 -19 171 1 37
22 59 101 59 205 l-1 70 -48 31 c-63 42 -121 94 -136 122 -13 24 -6 62 10 62
6 0 41 -31 80 -70 71 -72 107 -90 93 -48 -7 24 -82 191 -158 351 -25 54 -46
100 -46 102 0 17 32 -3 75 -45 83 -82 99 -66 80 79 -9 68 -9 72 -30 151 -9 36
-18 72 -20 81 -2 9 -14 48 -28 88 -32 91 -18 109 23 28 8 -17 17 -24 23 -18
10 10 11 135 1 198 -24 162 -42 217 -88 267 -15 15 -25 30 -22 33 2 2 29 -7
59 -21 29 -14 59 -26 66 -26 18 0 68 86 80 138 11 45 16 108 12 164 0 15 -13
40 -27 55 l-26 28 31 3 c35 4 119 -32 128 -54 16 -42 94 26 113 97 13 49 5
120 -19 168 -22 41 -75 81 -109 81 -23 0 -40 -19 -25 -29 23 -15 21 -40 -6
-65 -34 -32 -51 -33 -80 -2 -31 32 -35 94 -10 135 39 64 125 82 213 43z
m-2597 2 c-3 -3 -12 -4 -19 -1 -8 3 -5 6 6 6 11 1 17 -2 13 -5z m753 -23 c0
-12 -19 -25 -44 -28 -19 -3 -19 -3 -1 17 19 21 45 27 45 11z m-615 -441 c29
-16 95 -109 95 -134 0 -11 -4 -27 -9 -35 -7 -11 -11 -9 -20 8 -7 12 -9 26 -6
31 3 5 1 11 -4 15 -6 3 -17 -8 -26 -25 -8 -16 -13 -30 -10 -30 3 0 1 -9 -5
-20 -25 -46 -34 -13 -16 58 13 51 14 62 6 67 -10 6 -43 -34 -60 -74 -6 -16
-19 -32 -27 -35 -13 -5 -14 -1 -10 24 4 16 16 49 27 72 11 23 20 49 20 57 0
26 -34 -18 -54 -69 -26 -64 -43 -94 -57 -99 -9 -3 -11 7 -7 36 7 51 33 106 68
143 28 30 52 33 95 10z m293 -120 c-1 -33 -12 -47 -23 -30 -9 14 3 60 15 60 5
0 8 -14 8 -30z m822 -28 c0 -16 -55 -69 -77 -75 -34 -8 -28 6 20 47 42 36 57
43 57 28z m45 -42 c-10 -11 -25 -20 -33 -20 -12 0 -12 4 3 20 10 11 25 20 33
20 12 0 12 -4 -3 -20z m-956 -28 c12 -20 2 -155 -13 -170 -7 -7 -42 -15 -77
-18 -73 -5 -129 -21 -129 -36 0 -6 16 -7 43 -3 129 19 136 19 146 -6 13 -36
-15 -103 -60 -144 -21 -19 -45 -36 -52 -36 -6 -1 -22 -3 -34 -4 -11 -1 -36
-11 -55 -23 -41 -25 -159 -38 -198 -22 -34 14 -42 45 -45 173 -2 86 17 223 36
259 8 15 24 17 147 14 108 -3 149 0 192 13 64 20 88 21 99 3z m759 -33 c-61
-45 -11 -47 70 -3 23 13 42 22 42 19 0 -11 -57 -55 -94 -71 -23 -10 -47 -25
-55 -32 -25 -24 -1 -26 49 -5 28 12 50 17 50 12 0 -5 -4 -9 -9 -9 -12 0 -22
-28 -12 -34 4 -3 29 6 55 20 26 14 50 24 52 22 8 -9 -44 -68 -86 -97 -33 -23
-57 -31 -90 -32 -52 0 -112 -19 -117 -35 -3 -8 16 -15 49 -20 104 -16 115 -14
167 35 l32 30 50 -26 c53 -26 79 -65 82 -122 2 -26 2 -26 -80 -26 -45 0 -85
-4 -89 -8 -16 -16 19 -24 92 -23 54 2 78 -2 87 -12 7 -10 11 -57 10 -141 -2
-216 -15 -266 -92 -340 -105 -103 -226 -140 -312 -96 -28 15 -31 19 -17 29 13
10 14 16 5 31 -7 11 -26 55 -42 99 -31 82 -48 102 -58 65 -6 -24 -27 -17 -27
9 -1 24 -27 55 -40 47 -6 -3 -19 4 -29 16 -10 12 -23 19 -29 15 -16 -9 15 -69
60 -116 57 -62 63 -70 45 -70 -9 0 -34 17 -55 38 -30 28 -45 55 -63 110 -16
52 -28 72 -40 72 -9 0 -19 7 -23 15 -7 19 -22 19 -29 1 -10 -26 8 -71 28 -71
11 0 25 -11 32 -25 15 -29 17 -50 4 -50 -14 0 -72 71 -83 101 -8 24 -13 27
-29 19 -22 -12 -21 -15 -19 66 1 68 -12 89 -53 79 -25 -7 -29 -18 -13 -43 4
-7 5 -31 1 -52 -4 -22 -5 -41 -3 -43 8 -8 -31 -36 -56 -39 -44 -5 -34 -23 16
-28 79 -10 77 -32 -6 -53 -60 -16 -60 -31 0 -37 26 -3 49 -10 51 -17 5 -13
-46 -43 -72 -43 -30 0 -16 -30 15 -31 17 -1 35 -3 40 -4 6 -1 15 -3 21 -4 23
-2 -12 -29 -46 -35 -19 -4 -35 -11 -35 -16 0 -15 40 -32 61 -27 10 3 22 0 26
-6 8 -13 -33 -47 -58 -47 -38 0 -20 -30 21 -36 36 -6 58 -19 48 -29 -2 -2 -16
-6 -32 -9 -36 -6 -56 -23 -35 -30 8 -2 31 -7 53 -10 21 -3 41 -7 44 -10 11
-11 -20 -34 -54 -41 -21 -3 -34 -11 -31 -18 4 -12 11 -13 78 -16 26 -1 29 -4
20 -15 -7 -8 -24 -17 -38 -21 -48 -12 -95 -34 -89 -43 5 -8 46 -4 118 12 15 3
29 2 32 -3 9 -14 -26 -37 -92 -61 -103 -37 -94 -50 26 -35 l52 6 0 -50 c0 -41
-4 -53 -24 -69 -21 -16 -37 -18 -110 -15 -110 6 -179 -13 -229 -62 -20 -20
-37 -41 -37 -48 -1 -22 -27 -47 -43 -41 -22 8 -13 56 23 120 16 30 30 56 30
59 0 26 -117 -35 -200 -104 -70 -58 -74 -59 -67 -22 18 90 122 170 216 167 53
-1 56 1 51 49 -3 28 -5 29 -32 12 -12 -8 -49 -22 -82 -32 -32 -9 -106 -39
-164 -66 -58 -27 -107 -47 -109 -45 -12 11 34 66 79 95 128 84 199 107 276 87
l34 -8 -7 49 c-8 56 -31 153 -39 160 -3 3 -16 7 -28 9 -44 6 -112 35 -129 56
-27 30 -52 115 -50 170 1 68 52 178 82 178 5 0 20 -21 33 -47 l25 -48 -4 127
c-6 174 7 199 149 289 33 21 66 43 73 49 7 5 16 10 21 10 5 0 17 9 26 19 44
49 174 79 245 56 35 -11 24 -26 -17 -24 -40 3 -92 -22 -127 -61 -19 -21 -15
-37 7 -24 7 5 18 10 23 11 96 24 128 29 168 26 64 -4 88 -22 126 -91 43 -79
59 -98 71 -86 7 7 5 18 -8 35 -15 20 -18 37 -15 95 l4 71 -51 -5 c-31 -3 -50
-1 -50 6 0 14 56 41 101 48 30 5 39 3 47 -12 10 -20 1 -57 -18 -69 -8 -5 -8
-10 1 -21 16 -19 44 -2 57 34 10 28 -2 100 -21 130 -11 17 -42 15 -57 -3 -17
-20 -68 -16 -76 7 -5 17 -59 38 -98 38 -43 0 -5 11 54 15 116 8 84 32 -47 34
-24 1 -43 6 -43 11 0 7 32 9 90 6 49 -2 92 -1 95 4 9 15 -10 20 -90 24 -71 4
-95 10 -84 20 2 2 43 6 91 8 72 3 91 8 107 24 14 15 33 21 77 23 84 3 141 11
183 26 54 20 70 17 39 -6z m-399 -24 c19 -2 39 -9 45 -15 14 -14 -150 -5 -168
9 -7 6 -16 8 -19 4 -4 -3 -7 -1 -7 5 0 12 52 11 149 -3z m576 5 c-3 -5 -10
-10 -16 -10 -5 0 -9 5 -9 10 0 6 7 10 16 10 8 0 12 -4 9 -10z m-863 -22 c-7
-7 -12 -8 -12 -2 0 6 3 14 7 17 3 4 9 5 12 2 2 -3 -1 -11 -7 -17z m18 -90 c0
-4 -7 -5 -15 -2 -17 7 -21 -21 -5 -31 16 -10 12 -25 -6 -25 -14 0 -14 -3 -4
-15 7 -8 19 -15 26 -15 8 0 14 -3 14 -8 0 -4 -19 -7 -42 -7 -26 1 -42 6 -41
12 1 6 5 25 8 42 3 16 10 42 15 56 9 22 12 24 30 13 11 -7 20 -16 20 -20z
m-1594 14 c17 -10 31 -70 28 -116 -5 -74 -46 -141 -106 -172 -40 -21 -35 -32
20 -40 74 -11 78 -12 111 -29 50 -25 83 -84 80 -142 -3 -58 -18 -108 -30 -96
-4 4 -10 30 -14 57 -7 61 -27 105 -66 142 -27 26 -37 29 -92 29 -47 -1 -75 -8
-119 -29 -76 -38 -82 -56 -20 -56 39 -1 85 -8 148 -23 19 -5 59 -35 54 -40 -3
-3 -17 -8 -31 -10 -40 -8 -63 -26 -91 -71 -37 -61 -93 -228 -80 -240 3 -4 31
20 61 52 66 69 105 92 172 99 37 4 52 1 65 -12 25 -25 9 -44 -69 -83 -116 -57
-126 -90 -142 -434 -6 -131 -14 -161 -51 -193 -24 -21 -155 -67 -231 -81 -30
-6 -33 -4 -33 16 0 13 14 48 30 77 l31 54 -40 18 -41 18 39 21 c63 36 69 49
27 66 -49 21 -47 39 4 31 46 -7 50 2 22 43 -24 34 -33 70 -20 78 5 4 24 -4 41
-16 29 -22 31 -22 44 -5 7 11 13 30 13 43 0 36 -27 132 -52 188 -12 27 -23 54
-24 59 -26 115 -23 238 6 325 39 111 78 175 119 193 39 18 43 23 109 142 39
71 96 145 111 145 4 0 11 -4 17 -8z m1814 -106 c0 -9 -30 -14 -35 -6 -4 6 3
10 14 10 12 0 21 -2 21 -4z m-2035 -136 c-3 -5 -10 -10 -16 -10 -5 0 -9 5 -9
10 0 6 7 10 16 10 8 0 12 -4 9 -10z m2048 -550 c-9 -10 -88 -8 -100 2 -16 13
-17 40 -2 55 9 9 24 3 59 -20 27 -18 46 -34 43 -37z m210 34 c-6 -17 -23 -9
-23 11 0 8 6 12 14 9 8 -3 12 -12 9 -20z m-266 -88 c-2 -6 -18 -19 -35 -29
l-32 -19 0 30 c0 21 6 32 18 34 26 6 53 -3 49 -16z m168 14 c3 -5 -9 -19 -27
-30 l-33 -21 50 2 c28 1 59 1 70 0 20 -2 20 -2 1 -16 -10 -8 -23 -12 -27 -9
-13 8 -94 -34 -139 -73 -51 -44 -71 -34 -45 21 10 20 21 36 25 36 4 0 13 14
20 31 8 17 23 40 34 50 21 20 61 25 71 9z m-169 -95 c-10 -41 -26 -78 -32 -73
-2 3 -9 19 -13 36 -7 23 -5 34 7 46 25 25 45 21 38 -9z m248 -38 c-137 -103
-174 -153 -204 -275 -7 -29 -15 -51 -18 -48 -15 15 -2 128 21 185 54 133 101
169 231 179 26 2 24 -1 -30 -41z m261 3 c7 0 18 -13 23 -30 9 -26 7 -33 -18
-60 -15 -16 -36 -30 -47 -31 -10 -1 -30 -2 -46 -3 -38 -4 -61 15 -52 43 14 46
81 96 113 85 8 -2 20 -4 27 -4z m-135 -8 c0 -4 -7 -18 -16 -30 -18 -26 -25
-52 -29 -110 -1 -23 -5 -45 -8 -48 -5 -6 -44 53 -49 75 -2 8 -13 24 -25 35
-14 13 -20 26 -15 33 18 29 142 68 142 45z m-210 -242 c0 -5 -5 -10 -11 -10
-5 0 -7 5 -4 10 3 6 8 10 11 10 2 0 4 -4 4 -10z m-2400 -708 c0 -4 -12 -24
-26 -45 -44 -66 -43 -95 8 -158 l45 -54 64 1 c71 1 213 12 244 18 43 9 151 38
193 53 67 22 81 24 164 24 89 0 98 6 103 75 5 56 19 73 68 81 48 7 54 -9 34
-89 -9 -34 -14 -65 -11 -70 3 -4 60 -6 127 -5 120 3 124 4 234 50 172 72 248
86 296 52 12 -8 31 -15 43 -15 31 0 37 -28 15 -66 l-20 -34 32 0 c18 0 47 4
65 10 37 10 119 18 260 25 83 4 98 8 152 39 33 19 83 43 112 52 64 20 187 26
190 10 0 -6 2 -15 3 -21 2 -5 3 -22 4 -36 0 -15 7 -29 14 -31 6 -3 44 5 84 18
110 35 196 47 333 47 89 0 83 2 298 -81 l102 -39 72 12 c194 34 308 3 358 -95
54 -106 -14 -127 -170 -51 -30 14 -57 29 -60 32 -9 10 -90 39 -110 39 -12 0
-26 -12 -35 -30 -8 -16 -23 -34 -33 -39 -27 -15 -96 4 -177 48 -38 21 -87 44
-107 50 -45 15 -159 20 -208 10 -19 -4 -51 -10 -70 -13 -19 -3 -91 -14 -160
-25 -210 -33 -390 -50 -390 -37 0 3 23 20 50 37 28 17 50 35 50 40 0 14 -152
3 -192 -14 -18 -8 -58 -19 -88 -26 -30 -7 -89 -21 -130 -31 -135 -34 -218 -40
-295 -20 -22 6 -51 13 -64 16 -29 6 -41 13 -41 23 0 12 76 51 99 51 11 0 21 6
21 14 0 11 -8 12 -37 5 -21 -4 -39 -8 -40 -9 -2 0 -11 -3 -20 -6 -10 -3 -35
-13 -55 -21 -20 -8 -68 -17 -108 -18 -104 -5 -143 -13 -265 -58 -98 -35 -120
-40 -200 -40 -110 0 -148 11 -201 62 l-41 39 -74 -29 c-76 -30 -221 -78 -250
-84 -9 -2 -34 -8 -55 -14 -59 -16 -110 -13 -156 10 -86 44 -155 131 -162 207
-4 34 1 49 26 84 43 59 88 95 88 70z"/>
<path d="M4158 4786 c-62 -20 -108 -49 -108 -66 0 -23 40 -18 98 12 54 27 75
32 137 32 80 1 94 6 70 26 -27 22 -123 20 -197 -4z"/>
<path d="M4203 4743 c-22 -8 -15 -28 23 -66 48 -48 79 -36 67 27 -7 35 -52 55
-90 39z"/>
<path d="M4040 4269 c-19 -5 -44 -10 -55 -13 -11 -2 -42 -10 -70 -16 -27 -6
-57 -13 -65 -15 -104 -22 -248 -69 -300 -98 -93 -51 -191 -148 -226 -224 -45
-95 -68 -260 -38 -270 8 -3 14 18 19 59 16 155 19 166 67 236 75 109 147 164
294 220 67 25 188 57 259 67 50 7 165 47 160 56 -4 5 -7 9 -8 8 -1 -1 -18 -5
-37 -10z"/>
<path d="M3249 3954 c-9 -11 -29 -46 -45 -79 -25 -51 -29 -72 -29 -141 0 -73
3 -87 39 -159 l39 -79 15 31 c19 40 9 83 -19 83 -55 0 -60 143 -9 260 34 77
38 117 9 84z"/>
<path d="M3250 3470 c0 -5 4 -10 9 -10 6 0 13 5 16 10 3 6 -1 10 -9 10 -9 0
-16 -4 -16 -10z"/>
<path d="M2427 3259 c-57 -13 -121 -49 -110 -60 7 -7 42 1 102 22 116 40 122
65 8 38z"/>
<path d="M2455 3202 c-11 -2 -27 -6 -35 -9 -8 -4 -17 -7 -20 -7 -21 -6 -50
-29 -50 -41 0 -18 0 -18 41 -1 19 8 48 16 64 19 66 12 96 20 101 28 3 5 2 9
-3 10 -26 4 -81 4 -98 1z"/>
<path d="M2423 3129 c-18 -5 -35 -14 -39 -20 -14 -23 14 -27 81 -13 102 21
110 24 94 35 -18 11 -94 10 -136 -2z"/>
<path d="M2461 3067 c-55 -22 -78 -47 -44 -47 23 0 118 44 127 59 11 17 -24
13 -83 -12z"/>
<path d="M2523 2945 c-52 -23 -65 -39 -41 -47 16 -6 116 42 122 59 8 20 -23
16 -81 -12z"/>
<path d="M3295 2851 c2 -21 -1 -45 -6 -52 -8 -14 -8 -14 -24 37 -9 27 -30 9
-33 -29 -4 -43 15 -117 29 -117 5 0 15 14 21 32 10 29 12 30 25 12 13 -18 15
-18 27 -2 23 31 0 158 -29 158 -8 0 -12 -13 -10 -39z"/>
<path d="M2593 2848 c-13 -6 -23 -20 -23 -30 0 -19 1 -18 30 2 45 32 40 51 -7
28z"/>
<path d="M2814 2828 c-11 -36 -12 -71 -1 -92 14 -28 27 -2 27 56 0 51 -14 71
-26 36z"/>
<path d="M2891 2831 c-30 -19 -18 -127 13 -115 22 8 29 57 14 93 -9 22 -17 28
-27 22z"/>
<path d="M3155 2789 c-4 -17 -1 -43 6 -61 12 -30 12 -30 24 -8 6 12 10 31 9
43 -1 12 -3 27 -3 33 -1 7 -7 14 -15 17 -10 4 -17 -4 -21 -24z"/>
<path d="M3018 2784 c-4 -3 -2 -19 3 -36 4 -17 6 -34 4 -38 -8 -12 21 -43 33
-36 16 10 14 77 -2 99 -13 17 -28 22 -38 11z"/>
<path d="M908 3053 c-6 -10 -4 -43 7 -103 6 -35 9 -40 15 -25 15 43 -5 160
-22 128z"/>
<path d="M962 2608 c-16 -16 -15 -38 2 -38 15 0 29 37 17 45 -4 2 -13 -1 -19
-7z"/>
<path d="M4767 2744 c-3 -3 -3 -26 -1 -50 4 -32 -1 -61 -19 -107 -14 -34 -31
-89 -37 -122 -7 -33 -17 -69 -22 -79 -6 -11 -10 -71 -9 -135 4 -270 4 -301 -6
-301 -5 0 -21 23 -36 51 -19 34 -32 48 -38 42 -7 -7 3 -40 31 -98 48 -101 49
-105 55 -202 2 -39 9 -90 15 -113 14 -50 3 -68 -30 -50 -48 26 -32 -19 25 -69
43 -37 51 -38 66 -8 7 12 15 24 19 27 17 13 71 102 66 108 -4 3 -23 -13 -43
-36 -35 -41 -62 -54 -64 -29 0 6 -2 21 -5 32 -5 24 -5 395 1 445 2 19 6 63 9
98 7 63 50 219 67 237 12 12 11 25 -1 25 -5 0 -21 -18 -35 -40 -14 -22 -29
-40 -34 -40 -5 0 -2 29 5 65 8 36 16 79 19 95 3 16 20 79 38 139 33 108 33
110 13 115 -27 7 -41 7 -49 0z"/>
<path d="M4854 2263 c-54 -48 -97 -132 -62 -121 13 5 97 117 97 131 1 12 -15
8 -35 -10z"/>
<path d="M2505 2632 c-47 -10 -68 -23 -58 -33 8 -8 26 -6 63 6 60 20 56 41 -5
27z"/>
<path d="M2463 2547 c-55 -16 -39 -30 27 -23 67 7 90 14 90 27 0 11 -76 8
-117 -4z"/>
<path d="M2457 2394 c-1 -1 -18 -4 -37 -7 -49 -7 -74 -18 -60 -27 18 -11 139
2 168 19 9 6 15 11 12 12 -8 2 -81 5 -83 3z"/>
<path d="M2398 2312 c-42 -5 -34 -22 10 -21 33 0 85 15 72 20 -9 3 -55 4 -82
1z"/>
<path d="M3443 2332 c-13 -2 -23 -8 -23 -13 0 -16 117 -16 134 1 6 6 6 10 1
11 -30 3 -93 4 -112 1z"/>
<path d="M2588 2169 c-25 -14 -22 -31 4 -27 13 2 24 11 26 21 4 19 -5 21 -30
6z"/>
<path d="M3445 2160 c-7 -11 26 -18 75 -14 70 5 66 20 -5 21 -36 1 -67 -3 -70
-7z"/>
<path d="M3435 2092 c-27 -5 -43 -21 -24 -24 7 -1 44 -2 82 -3 72 -2 91 10 30
20 -21 3 -45 7 -53 9 -8 1 -24 0 -35 -2z"/>
<path d="M2650 2070 c0 -5 5 -10 11 -10 5 0 7 5 4 10 -3 6 -8 10 -11 10 -2 0
-4 -4 -4 -10z"/>
<path d="M2639 2009 c-20 -13 5 -27 37 -21 22 4 34 21 17 23 -5 0 -15 2 -24 4
-9 1 -23 -1 -30 -6z"/>
<path d="M3438 2013 c-33 -8 -18 -22 35 -32 45 -9 69 -9 112 -2 6 1 -1 8 -15
15 -27 15 -104 25 -132 19z"/>
<path d="M3463 1922 c-51 -8 -11 -32 54 -32 27 0 52 15 42 25 -7 6 -74 11 -96
7z"/>
<path d="M3423 1843 c8 -13 115 -38 124 -29 13 13 -13 25 -71 32 -38 5 -57 4
-53 -3z"/>
<path d="M3468 1763 c6 -2 18 -2 25 0 6 3 1 5 -13 5 -14 0 -19 -2 -12 -5z"/>
<path d="M2307 1754 c-7 -8 4 -44 14 -44 12 0 12 37 0 44 -4 3 -11 3 -14 0z"/>
<path d="M3217 1734 c-10 -10 13 -59 35 -73 54 -34 117 -32 89 3 -14 17 -100
76 -111 76 -4 0 -9 -3 -13 -6z"/>
<path d="M2324 1618 c13 -66 27 -108 36 -108 12 0 5 78 -11 113 -17 37 -33 34
-25 -5z"/>
<path d="M2085 503 c-11 -3 -29 -12 -40 -19 -16 -12 -17 -14 -3 -14 32 0 118
22 124 31 5 9 -46 10 -81 2z"/>
</g>
</svg>
